<svg id="Layer_1" data-name="Layer 1" xmlns="http://www.w3.org/2000/svg" viewBox="0 0 1003.81 828.27">
  <g>
    <path d="M460.07,931.47a25.7,25.7,0,0,0,9.34-1.15c6.54-1.41,7.2-2.28,7.23-10.16.11-34.26.48-68.52.21-102.78-.22-28.11,0-56.22-.51-84.34-.64-31.59-.3-63.2-.27-94.81,0-10,.94-20,.45-29.93-.67-14-.7-28-.22-41.91.77-22.62.46-45.22.3-67.81-.22-32.74,0-65.49,0-98.23,0-24.26.22-48.56.1-72.81-.12-23.44-.18-46.9-.35-70.35-.13-18.45-.1-36.9-.12-55.35q0-17.72,0-35.43c0-17.46-1.17-22.87-2.28-40.31,6.82-.79,13.65-.33,20.47,0-1.6,11.93.67,11.89.69,23.86.12,65.95-.33,131.89.76,197.85.84,50.76.49,101.56.45,152.34,0,14-1.26,27.94-1.2,41.91.31,70.45-.81,140.9.79,211.35,1,42.25-.88,84.54,1.52,126.79.21,3.66.17,7.3,0,11-.42,10.61-1.78,21.2,0,31.88,1.21,7.14.82,7.24,8.43,8.12a59.31,59.31,0,0,0,25.37.07c8-.6,10.5-2.11,10.71-7,.28-6.27.23-12.66,0-18.8-.28-6.65.18-13.27.37-19.81.55-19.11-.07-38.21-.2-57.29-.09-13.23.64-26.48-.23-39.8-1-15.68,1-31.53.26-47.35-.25-5.46.8-11,.45-16.44-.7-10.88-.74-21.74-.79-32.63,0-5.82,1.37-11.55.8-17.23-1.18-11.53-.74-23.12-.37-34.56.43-13.41-.06-26.82-.27-40.14-.19-12.17.62-24.36-.37-36.63-1.56-19.31,1-38.78,0-58.25-.82-16,.58-32.13.44-48.19-.14-16.89-.27-33.82.18-50.66.39-14.92-1.68-29.7-.2-44.77,1.4-14.35.15-29.15-.34-43.75-.73-22.09.77-44.28,0-66.31-.88-24.6.93-49.13-.24-73.72-1-21.25-2.48-30.56-1.38-51.85,3.83-.14,7.66-.25,11.48-.44,3.16-.15,4.59,1.46,4.75,4.45.08,1.49,1.95-9,1.95-7.55q0,396.62.05,793.24c0,1.83-.05,3.67.06,5.49.32,5.23,1.78,6.08,7.14,4.28,2.34-3.1,1.54-6.72,1.54-10.14,0-264.6-1.8-517.16-1.83-781.75,0-2.49-.24-5-.36-7.47,3.13-.91,6.26-.31,9.39,0-.08,1.5-.21,3-.22,4.49-.42,71.92,2,131.8,1.24,203.73-.71,68.08-.36,136.18.36,204.28q1.14,109.11-.46,218.27c-.83,53.11-.16,106.24-.16,159.36,0,2.16,0,4.33.16,6.49.16,2.32,1,4.25,3.7,4.54,3.47,1.69,7.08,1.38,10.71.83,6.14-.52,5.54-5.16,5.57-9.3.46-66.11,0-132.22.64-198.34.65-67.27.34-134.56-.35-201.85q-1.12-107.39.43-214.83c.85-55.45.14-110.93.2-166.4,0-7.84-2.14-3.6-3-11.38a55.82,55.82,0,0,1,13.73-.06c-.09,2.82,1.57-6.39,1.57-3.56q0,332,0,664.05,0,66.45,0,132.91c0,8,.78,8.93,8.47,11.1,1,.27,1.95.45,2.92.68a55.2,55.2,0,0,0,20.54-.14c8.37-1.61,8.83-2.19,8.83-11.9-.12-268.38-2.06-524.72-2.18-793.1,4.58-.25,9.16-.88,13.73.06-.12,2.66-.31,5.32-.31,8,0,264.65,1.83,517.26,1.84,781.9,0,2.33,0,4.67.09,7,.09,2,.34,4.05,2.65,4.91,6.91,1.29,8.11.23,8.12-7.67,0-48.47.32-96.95-.06-145.42-.61-77.28-.95-154.56-.35-231.84q.81-104.68.24-209.36c-.42-66.63-.1-133.25-.38-199.87,0-5-1.64,2.05-1.68-2.94,0-3.22,1.15-5.07,4.6-5.12s6.48.36,6.65,4.78c.07,1.83,1.92-8.38,1.92-6.55q0,395.78,0,791.53c0,2,0,4,0,6,.1,7.93,2.81,10,10.7,8.24.81-.19,1.6-.44,2.4-.66,2.46-.66,3.48-2.46,3.63-4.81.14-2.16.16-4.32.17-6.49q0-379.63,0-759.28c0-14.81-2-17.58-2.11-32.4,4.53-.76,9.06-.27,13.58.09.92,5,2-2.08,2,2.9q-.12,35.41,0,70.83c.05,17.14-.27,34.28-.34,51.42,0,13.66.71,27.29.54,40.94-.19,15.45-1.11,31-.16,46.34,1.18,19-.74,37.92,0,56.9.33,8.91.51,17.95.11,26.9-.6,13.64-.42,27.29-.14,40.9.2,10.14.08,20.31,0,30.42-.13,18.11.28,36.22-.05,54.34-.37,20.12.1,40.25.11,60.38,0,12-.25,23.94-.24,35.91,0,28.28.21,56.55.25,84.82,0,16.3-.13,32.59-.16,48.89,0,11.63,0,23.25,0,34.88q0,19.71,0,39.42,0,16.7,0,33.38c0,12.64-.15,25.28-.07,37.92,0,3.12.91,6,4.81,6.5a33.33,33.33,0,0,0,19.6.3c7.45-1.27,7.82-1.68,7.85-9.16,0-7.31,0-14.61,0-21.92.1-29.07.51-58.15.23-87.21-.27-27.41.21-54.82-.5-82.23-.65-25.13-.16-50.29-.11-75.43q.15-66.43.36-132.86c0-21.1,0-42.19,0-63.29.07-25.58.51-51.17.25-76.75-.25-23.92,0-47.85-.53-71.78-.61-25.8-.21-51.62-.11-77.43.15-39.46-2.38-66.87-1.27-106.32,10.32-.94,6.81,1.59,12.16-2.66q0,396,0,792.09c0,2.82.11,5.65.34,8.47a2.21,2.21,0,1,0,4.42-.08c.18-2.16.26-4.32.26-6.48q0-394.54-.05-789.09c0-1.67,0-3.33,0-5,8.51,2.77-1.82,1.92,8.51,2.77-.07,28,1.65,43.9,1.62,71.87q-.06,56.45,0,112.88c0,15.64-.85,31.35.34,46.9a233.4,233.4,0,0,1-.81,40.3c-1.47,15.32-.76,30.57-.84,45.81-.12,23.24-.21,46.51-.15,69.76.08,29-.29,57.91-.33,86.87q-.11,62.67,0,125.34c0,8.15,1.23,16.34.69,24.43-1.12,17-.25,33.92-.13,50.86.12,17.44-.23,34.88-.36,52.3-.12,15.13,1.06,30.25.21,45.39-.45,8.11,0,16.27,0,24.41,0,3.47,1.33,5.74,4.83,6.53,2.1.48,4.19,1,6.28,1.5,6.84,1.55,13.68,2,20.53.12,8.17-.45,9.39-1.66,9.84-9.76.15-2.65.54-5.32.44-8-.7-18.12.31-36.24-.44-54.37-.42-10.13.58-20.31.28-30.45-.59-19.62-.06-39.24,0-58.86,0-14.13.1-28.26.07-42.39,0-18.62-.57-37.26-.15-55.87.32-14.29,0-28.59.27-42.88.29-18.57-.27-37.2-.07-55.8.07-7.15.61-14.34.14-21.45-1-15.12-.19-30.24-.37-45.35-.22-18.93.89-37.88.53-56.8-.4-20.94-.81-41.89-.71-62.83.16-29.45-.27-58.9.57-88.37.47-16.73-.06-33.56-.38-50.34-.85-44.6-2.31-77.83-2.4-122.45,4.61-.21,9.21-1.56,13.81-.71,3.25-1,5.29.56,7,.27.44,68.43-5.59,135.37-5,203.8.63,69.91.36,139.84-.29,209.76-.65,70.41-.94,140.84.44,211.26.54,27.47.09,54.95.09,82.42q0,43,0,85.91c0,2.86-.81,6.18,2.64,8,2.59.68,5.14.9,7.55-.59,4.83-2.14,3.22-6.54,3.23-10.08C839.47,651,837.63,398.52,837.6,134c0-2.65-.3-5.31-.46-8,2.78-.57,9-1.35,11.78-1-.08,2.16,0,5.29,0,7.45,0,245.16-1.83,478.37-1.82,723.53q0,32.72,0,65.45c0,3.59,0,7.28,4.9,7.78a20.92,20.92,0,0,0,17.39.46c6.08-.6,5.57-5.19,5.54-9.35-.52-64.61.07-129.22-.63-193.84-.75-68.43-.41-136.88.35-205.33q1.17-104.39-.38-208.82c-.89-66.1-2.91-120.18-1.48-186.29,6.19-.76,12.38-.38,18.56,0a58.52,58.52,0,0,0-.84,7.42c.12,16,2.61,19.86,2.3,35.79-.59,29.43-.28,58.85-.36,88.28,0,22.62.43,45.23.5,67.85.1,32.31,0,64.61,0,96.91,0,29.79.11,59.57,0,89.36-.11,22.27-.86,44.54-.71,66.8.13,20.94-.35,41.89.33,62.84.41,12.94-.62,25.92-.37,38.87.41,21.11.24,42.23.59,63.35.53,31.45-.43,62.92,0,94.37.42,27.63-.92,55.24,0,82.86.27,8,1,9.29,8.93,9.62a54.08,54.08,0,0,0,27.38.89c10.87-.43,12.69-2.3,12.71-13.05,0-1,0-2,0-3-.56-145.39,1-290.79-.83-436.18-.34-26.92,1.15-53.87.52-80.78-.52-22.61.53-45.19-.15-67.8-.6-20.25.34-40.55.4-60.83,0-10.32-1.27-20.71-.43-30.94,1.56-19-.76-37.91-.09-56.89.8-22.58-1.25-33.93-1.23-56.54,16.73-.84,15.46-1.32,16.24,2.28q.13,195.63.16,391.27,0,197.63,0,395.26c0,2.17-.05,4.34,0,6.5.23,5.5,1.14,6.22,6.7,5.54,3.59-2.26,2.48-5.93,2.48-9.09,0-265.33-1.81-518.62-1.84-784,0-2.32-.84-5.48-1-7.8,2.62-.71,12.88-.21,15.5.11-.09,2.49-1.24,5.72-1.24,8.22,0,250.74-4.23,489.41-4.23,740.16,0,15.31,0,30.63.05,46,0,3-.55,6.65,3.88,7.54a13.25,13.25,0,0,0,6.78,1.35c7,0,8.88-1.79,8.88-8.83,0-58.13.72-116.26-.17-174.38-1.07-69.61-1.06-139.22-.37-208.82.67-68.27,1-136.55.31-204.81-.65-67.45-.08-134.89-.57-202.33,0-2.66-1.84,6.72-1.81,4.05.09-7,.82-7.84,7.69-7.82,3.83,0,7.66.32,11.48.5-.07,2.16-.19,4.32-.19,6.48,0,20.64,1.85,29.23,1.7,49.86-.14,19.95-.64,39.89-.69,59.84,0,9.46.54,19,0,28.37-1,16-.38,32-.21,47.86.18,17.58-.38,35.17-.35,52.73,0,17.23,1.11,34.47-.08,51.78-1.41,20.56-.61,41.28-.6,61.93,0,37.29,0,74.58.33,111.88.19,21.46-2.31,42.83-1.59,64.31.63,19,0,37.93-.06,56.88-.22,41.12,0,82.23,0,123.35,0,10.15,0,20.29-.05,30.44q-.06,25.73-.11,51.45a5.82,5.82,0,0,0,4.23,6.06c2.36.82,4.67,1.77,7.22,1.85,6.91,1.05,13.81,1.72,20.61-.67,6.52-.65,7.67-1.64,7.7-7.86.09-17.81-.18-35.62.09-53.43.32-20.3.55-40.63.31-60.9-.32-28-.23-55.93-.06-83.88q.15-22.66.12-45.34c0-15.3-.3-30.6-.12-45.9q.27-24.42.3-48.83c0-8.48-.51-17-.19-25.44.67-17.63-.32-35.25-.21-52.88q.13-22.68,0-45.4c-.06-16.79.15-33.61.17-50.39,0-23.12-.26-46.27-.36-69.41-.09-22.46.59-44.92.46-67.39-.09-15.61-.26-31.26,0-46.85.19-12.46.23-25,0-37.38-.43-25.1-1.53-38.14-1.69-63.22,16.41-1.2,12.93-.81,16,1.14q.09,394.32.1,788.65c0,2,0,4,0,6,.22,6.66,2.53,8,9,5.33,2.86-2.7,1.83-6.25,1.83-9.45,0-265.38-1.79-518.72-1.81-784.1,0-2.48-.28-5-.42-7.46,1.48-.15,3-.39,4.45-.44,3.64-.13,5.31,1.28,5.3,5.33-.16,65.12.9,118.22,1.8,183.33q1.44,104.43.36,208.84c-.67,68-1,135.9-.31,203.84.63,64.28.09,128.56.56,192.85.08,10.38,2.11,11.91,12.39,9.14,3.41-2.22,2.89-5.77,2.89-9,.06-26.29.2-52.58,0-78.87-.3-38.77-.34-77.54-.53-116.31-.33-68.08-.8-136.17.43-204.26.74-40.76.4-81.54.06-122.31-.23-28.11.06-56.22-.53-84.34-.74-35.28-.15-70.59-.18-105.88,0-31.3-2-50.55-2-81.85a50.58,50.58,0,0,1,14.17-.15c-.08,3.16,1.6-5.72,1.62-2.56.11,15.64.88,31.31.25,46.93-1,24-.3,47.94-.3,71.89,0,25.79-.42,51.58-.13,77.38.39,35.29.13,70.59.13,105.89q0,153.69,0,307.36,0,93.72,0,187.42c0,7.89,1,9.05,8.4,10.17a30,30,0,0,0,16.94,0c8.28-1,9.43-2.41,9.43-11.9q0-382.4-.16-764.79c0-13.26-.88-14.57-2.79-27.81,10.55-1,12.39-.44,12.39-2.41q0,395.82,0,791.63c0,2.83.08,5.66.32,8.48.11,1.39.88,2.58,2.58,2.45a2.33,2.33,0,0,0,2.12-2.4c.21-2.15.27-4.32.27-6.48q0-94.2-.07-188.41,0-301.61,0-603.22c0-1.16-1.83,9.71-1.83,8.55,0-8.93,0-8.93,8.93-8.22.21,5.15,2.59-1.73,2.4,3.41-.59,15.11,0,30.22-.49,45.36-.78,22.24.49,44.55.51,66.84q.12,146.11,0,292.24,0,192.83,0,385.65c0,8.8.87,9.89,8.54,11.1a41.22,41.22,0,0,0,22.75.68c8.6-1,9.66-2.08,9.6-10.55-.5-64.61.08-129.21-.62-193.83-.75-69.26-.41-138.54.36-207.82.8-72.59,1.19-145.22-.61-217.82-.38-15.31,0-30.64,0-46q0-50.42,0-100.83c0-13.48-2-14.92-2.08-28.4,4.87-.23,9.74-.94,14.6,0-.11,3.15,1.54-5.73,1.54-2.57q0,395.22,0,790.43c0,2.16,0,4.33.07,6.49s.28,4,2.37,5.16c6.92,2.11,8.56.91,8.56-6.61q0-87.71,0-175.39,0-309.57-.07-619.13c-1.37,3.13-1.77.51,10.16,1.59-1.14,3.21.77-5.49.77-2.16q0,27.22,0,54.44,0,370,0,739.93c0,1.66,0,3.33,0,5,0,3.66,1.51,6.09,5.46,6.41,5.16,2.67,10.4,2,15.66.4,5.72-.95,5-5.42,4.93-9.34-.51-64.76.08-129.52-.64-194.29-.8-72.58-.37-145.18.4-217.77q1.05-97.62-.45-195.29c-1-62.76-.22-125.55-.24-188.33,0-3.66-2,4.72-2.08,1.06a107.24,107.24,0,0,1,20.27-.07c-1.36,23.57.77,35.14.79,58.73,0,49.28.07,98.57.54,147.86q1,104.4-.38,208.83-1.23,106.64.49,213.33c1,54.12.19,108.26.19,162.4,0,2,.09,4,0,6-.09,3.77,1.83,5.93,5.36,6.76,2.09.5,4.23.84,6.34,1.25,8.16,1.44,16.32,2.14,24.48.08,8.25-.33,9.94-2.21,9.57-10.31-.16-3.48,0-7,0-10.46,0-18.29-.14-36.57-.08-54.85,0-12.63.42-25.26.41-37.89,0-16.29-.42-32.59-.35-48.88,0-7,.42-14,.2-21-.34-10.46-.41-20.93-.37-31.4.07-16,.68-31.93.4-47.88-.42-23.45-.26-46.92-.1-70.35.13-19.8-.23-39.59-.76-59.36-.19-7.39,1.16-14.52,1-21.81-.34-21-1.14-41.94-.45-62.86,1-31.43-.34-62.84.12-94.26.31-21.08-.26-42.23-.21-63.33.06-21.78.27-43.57.1-65.36-.12-14.14.54-28.26.22-42.41-.36-16.29-.14-32.59-.19-48.88,0-8.64-.57-5.27-2.49-13.86,4.66-.18,9.32-.33,14-.57,3.47-.18,4.85,1.52,4.69,4.83-.12,2.33,1.63-7.38,1.63-5,0,62.47-.49,124.94.13,187.39q1,103.7.25,207.37c-.43,65.29-.64,130.59-.23,195.87.42,67.29.16,134.58.43,201.87a40.91,40.91,0,0,0,.45,6,3,3,0,0,0,3.13,2.66c2,.1,3.31-.8,3.64-2.66a33.88,33.88,0,0,0,.42-6q0-201.39,0-402.77c0-130.93-1.83-249.81-1.82-380.73,0-8.1,1-9.26,6.48-8.62,2.84.32,4.21,1.75,4.34,4.47.11,2.17,2-7.71,2-5.55,0,57.8-.55,115.61.14,173.4q1.26,106.44.42,212.85c-.64,67.79-.89,135.58-.37,203.36s.33,135.57.57,203.36c0,11.09,2.9,13.14,13.73,9.77,2.7-.39,3.46-2.35,3.63-4.65s.15-4.33.15-6.49c0-264.76-1.86-517.47-1.89-782.23,0-2.66-.14-5.32-.22-8a66.53,66.53,0,0,1,15.45,0c-.27,12.48.85,13,1.25,25.38.61,19.26.36,38.52.44,57.77.12,25.76-.36,51.55-1.17,77.31-.55,17.34,2.16,34.52,1.92,51.78-.9,66.4.29,132.79-1.21,199.23-1.54,68.83-1.62,137.77.87,206.7,2.13,58.73.43,117.6.46,176.41,0,8.08.82,8.95,8.84,10.36,6.8,1.58,13.61,1.27,20.42.15,8.29-1.9,8.75-2.44,8.75-11.06q0-398.1,0-796.2c0-3.33-1.77,5.37-2.93,2.17l15.08-.26c0,275.38,1.82,538.72,1.93,814.11" transform="translate(-458.57 -117.36)" fill="#431111" stroke="#000" stroke-miterlimit="10" stroke-width="3"/>
    <path d="M460.16,942.91q0-407.07-.09-814.16c0-3.74.84-4.59,4.59-4.59q495.37.15,990.75.16c1.46,0,3.39-1.16,4.5.93l-15.09.27c-6.9-.28-8.83,1.16-8.5,7.64.89,17.47-.5,34.91-.33,52.37.52,52.76.14,105.53.66,158.3.69,69.74.41,139.5-.37,209.25-.79,70.57-1,141.17.54,211.75.76,33.95.1,67.94.14,101.9,0,25.31.13,50.62.2,75.92-6.82,1.12-13.63,1.43-20.43-.14-.07-3.66-.2-7.32-.2-11,0-18.28.2-36.56-.12-54.84-.19-10.3.85-20.58,0-30.91-1.21-14.93.39-29.9-.2-44.87-.43-10.77.83-21.62.29-32.37-1.17-22.95-.51-45.9-.33-68.83.09-11.62.23-23.3,0-34.88-.59-24.77.59-49.52,0-74.3-.61-26.56.39-53.15.45-79.73.05-19.1-.41-38.21-.41-57.31,0-22.58.09-45.17.43-67.74q.55-37.15-.19-74.3c-.62-30.59.6-61.17-.45-91.75-.45-12.93.81-25.89.45-38.88-.42-15.11-1.12-30.23.09-45.37.67-8.5-1.43-10.36-9.37-9.93a66.53,66.53,0,0,0-15.45,0c-3-.32-4.32,1.31-4.52,4-.15,2.16-.17,4.33-.16,6.49.5,68.61-.11,137.22.57,205.83.7,69.77.39,139.55-.33,209.33q-1.15,111.15.45,222.32c.74,52,.14,103.93.16,155.9,0,3.16.21,6.32.33,9.48-10.83,3.37-13.7,1.32-13.74-9.77-.24-67.79,0-135.57-.56-203.36s-.28-135.57.36-203.35q1-106.43-.42-212.86c-.69-57.79-.14-115.59-.14-173.39,0-2.17,0-4.34-.13-6.5-.14-2.72-1.51-4.15-4.34-4.48-5.53-.63-6.49.53-6.49,8.63q0,196.38,0,392.77,0,201.39,0,402.77a33.88,33.88,0,0,1-.42,6c-.32,1.86-1.67,2.76-3.64,2.66a3,3,0,0,1-3.13-2.66,39.56,39.56,0,0,1-.44-6c-.28-67.29,0-134.58-.44-201.87-.4-65.28-.2-130.58.23-195.87q.69-103.68-.25-207.37c-.62-62.45-.13-124.92-.12-187.39,0-2.33.08-4.66.19-7,.16-3.31-1.22-5-4.68-4.83-4.66.24-9.32.39-14,.57-6.28-.32-6.59.11-6.62,6.07-.07,12.79-.17,25.58,0,38.39.27,19.61-1,39.23-1,58.85,0,7.65-1.52,15.17-.7,22.89a174.68,174.68,0,0,1,.54,23.45c-.84,29.63-.86,59.27-1,88.89q-.52,94.92.42,189.86c.78,69.94.94,139.9-.52,209.85-.91,43.63-.18,87.29-.16,130.93,0,16,.12,32,.18,48-8.17,2.05-16.33,1.35-24.49-.09.34-9.31,1-18.61.93-27.91-.05-16.12-.43-32.25-.8-48.37-.27-11.31,1.51-22.55.78-33.89-.7-10.77-.6-21.6-1.34-32.36-.53-7.69.51-15.3.37-22.95-.27-15.28-.31-30.57-.36-45.85,0-10.48.17-21,.15-31.44,0-10.81-.64-21.64-.22-32.44.6-15.45.1-30.88.28-46.32.14-11.64-.4-23.28-.37-34.92.06-21.44.81-42.87.29-64.32-.42-17.28.26-34.59.43-51.89.08-8-1.31-15.92-.82-23.95,1.21-19.92.36-39.88.55-59.82.15-14.28-1.16-28.63-.19-42.85,1-15.33-.15-30.59-.16-45.86,0-21.95.14-43.92-.1-65.88-.18-16.28.32-32.57.42-48.85.11-16.62,0-33.23.17-49.85,0-6-1.15-7.48-7.06-7.66-1.49,0-3,.12-4.48.19a107.35,107.35,0,0,0-20.28.07c-5.22.54-3.93,4.66-3.93,7.68q-.09,105.66,0,211.32,0,294.26,0,588.51c0,2.83.13,5.66.2,8.49-5.27,1.64-10.51,2.27-15.66-.4.12-19,.67-37.92.26-56.87-.45-21-.5-41.93-.31-62.85.25-28.6.26-57.21.35-85.8.29-91.08.43-182.15-.36-273.22-.2-22.61.37-45.22.46-67.82.1-24.13,0-48.25,0-72.37q0-90.46,0-180.91c0-3.67,0-7.33-.08-11-.06-3.14-1.32-5.15-4.86-4.82-11.93-1.08-12-1-12,10.45q0,309.57.08,619.13,0,87.69,0,175.39c0,7.52-1.65,8.72-8.57,6.61.16-3.65.47-7.31.47-11q0-394.86,0-789.73c0-2.16,0-4.33-.09-6.49-.09-1.84-.24-3.74-2.51-4.37-4.87-1-9.74-.27-14.6,0-8.9-.52-9.63.13-9.68,8.67,0,1.84,0,3.67,0,5.5.09,80.07.16,160.14.81,240.21.47,57.43.12,114.86-.49,172.3-.72,67.74-1.25,135.51.54,203.26.82,31.12.11,62.28.15,93.41q.06,47,.23,93.91a41.19,41.19,0,0,1-22.74-.68c.16-3.32.48-6.64.47-10-.32-68.57,0-137.15-.69-205.73-.65-65.24-.33-130.51.41-195.77q1.14-102.87-.43-205.77c-1.08-63.76-.24-127.55-.25-191.33,0-7.83-.78-8.54-8.65-8.08-8.9-.71-8.9-.71-8.93,8.22,0,1.16,0,2.33,0,3.5q0,301.61,0,603.21,0,94.22.07,188.41c0,2.16-.07,4.33-.28,6.48a2.32,2.32,0,0,1-2.12,2.4c-1.7.13-2.46-1.06-2.58-2.45-.24-2.82-.32-5.65-.32-8.48q0-395.81,0-791.63c0-10.6,0-10.6-10.57-9.63-7.63-.45-8.45.3-8.56,7.73,0,1.33,0,2.67,0,4q0,397.41,0,794.83c0,3.33.19,6.66.29,10a30,30,0,0,1-16.94,0c.14-3.82.41-7.64.41-11.47q0-327,0-653.95,0-70.92-.17-141.85c0-9.24-.37-9.63-8.41-9.25a50.65,50.65,0,0,0-14.18.15c-4.48,1.64-2.95,5.56-2.93,8.58.42,69.44-.19,138.87.54,208.32s.38,138.87-.35,208.31c-.74,70.76-.77,141.54.44,212.31.89,51.62.17,103.26.19,154.89,0,7.49.12,15,.18,22.48-10.27,2.77-12.31,1.24-12.38-9.14-.48-64.28.06-128.56-.57-192.85-.66-67.94-.35-135.89.31-203.84q1-104.4-.35-208.84c-.9-65.11-.13-130.25,0-195.38,0-4-1.66-5.45-5.3-5.32-1.48,0-3,.29-4.45.44-2.89,2.92-1.7,6.63-1.71,10q-.08,397.8,0,795.59c0,2.5.2,5,.31,7.48-6.43,2.7-8.75,1.33-9-5.33-.07-2,0-4,0-6q0-394.32-.09-788.65c0-14,2.18-14.38-14.22-13.18-7.75-.52-8.29-.17-8.6,7.58-.24,6.15-.14,12.32-.17,18.48-.08,12.79-.78,25.57-1.09,38.33-.58,23.59.87,47.22,1,70.83.09,21.45-.66,42.89-.71,64.34,0,12.48,1,25,.76,37.43-.15,9.14-.9,18.27-.72,27.43.24,12.63.33,25.27.18,37.91-.26,22.43-1,44.87-1.06,67.3,0,24.76.85,49.52.7,74.27-.14,20.77,0,41.54,0,62.31.09,25.13-.33,50.26-.36,75.38,0,23.79.45,47.58.21,71.38-.31,30.62.17,61.25.2,91.88,0,21-.17,41.94-.24,62.91,0,3,.1,6,1.49,8.78-6.8,2.39-13.7,1.72-20.61.67.06-2.5.18-5,.16-7.49-.3-30.45-.76-60.9-.9-91.36-.16-32.61,0-65.22,0-97.83q0-116.67,0-233.34c0-31.44.31-62.89.31-94.34,0-30.61-.3-61.23-.33-91.84q-.12-97.15-.09-194.31c0-5.32-1.26-6.53-6.84-6.61-3.83-.17-7.66-.48-11.48-.49-6.87,0-7.61.79-7.69,7.82,0,2.67,0,5.33,0,8,.48,67.43-.09,134.87.56,202.32.66,68.26.37,136.54-.31,204.81-.68,69.6-.7,139.21.37,208.82.89,58.12.2,116.25.18,174.38,0,7-1.86,8.8-8.89,8.84a13.4,13.4,0,0,1-6.78-1.36c.07-2.66.21-5.33.21-8q0-386.18,0-772.36c0-9,0-18-.06-27,0-2.62.16-5.62-3.75-5.87-2.63-.32-5.25-.7-7.87,0-2.61.93-2,3.14-1.94,5.06.06,4,.27,8,.25,12-.31,67.46,0,134.91-.44,202.37-.51,71.12-.29,142.24.26,213.37q.76,97.42-.3,194.88c-.71,59.79-.15,119.6-.14,179.4,0,1.66.14,3.33.21,5-5.57.68-6.48,0-6.71-5.54-.09-2.16-.05-4.33-.05-6.5q0-197.62,0-395.26,0-195.64-.17-391.27c0-15.44,2-14.4-14.76-13.56-9.06-.7-10.55.61-10.65,9.74q-.23,21.94-.31,43.91-.07,21.44,0,42.87c.08,16.3.41,32.6.36,48.9,0,17.13-1.6,34.34-.34,51.35,1.7,23,.33,45.88.86,68.81.42,17.91.22,35.9-.09,53.85-.11,6.32.67,12.65.14,18.91-1,11.62-.52,23.23-.33,34.82.21,12.94-.54,25.85,0,38.81.36,8.83-1,17.87-.87,26.85.17,19.11.17,38.22.32,57.33.07,8.8.46,17.61.43,26.42,0,14-3,27.79-1.93,42.07,1.27,17.65-.81,35.47-.34,53.28.81,31,.2,62,.22,92.93q0,53.22.17,106.44a54.12,54.12,0,0,1-27.39-.89c1.25-3.7,1.26-7.53,1.26-11.37,0-22.94.11-45.89,0-68.84-.22-39.42-.14-78.84-.73-118.27-.7-46.42-.21-92.87-.19-139.3,0-26.81.47-53.61.77-80.4.6-53.44.25-106.89.13-160.33,0-16.44-.84-32.88-.87-49.32q-.16-89.69,0-179.36c0-8.62-1-9.62-8.9-9.18-6.19-.39-12.38-.77-18.57,0-4.93-.88-6.74,1.57-6.58,6.15,0,1.17,0,2.34,0,3.5.53,69.76-.67,139.53.68,209.29.8,41.11.26,82.24.17,123.35-.07,27.45-.2,54.9-.67,82.36-.69,41-.25,81.93-.15,122.9.07,29.63-.31,59.26.74,88.89.59,16.62-.06,33.29-.08,49.93,0,28-.16,55.94.07,83.91.12,15.13-.66,30.28.61,45.4a20.89,20.89,0,0,1-17.38-.46c.07-2.33.22-4.65.22-7q0-397.47,0-794.93c0-3,0-6-.14-9s-1.43-4.78-4.74-4.3a25,25,0,0,0-8.33-.05c-2.54,0-2.86,2-3,3.8a59.63,59.63,0,0,0-.17,6q0,396.9,0,793.78c0,2.65.24,5.31.37,8-2.42,1.49-5,1.27-7.56.59.07-2.49.2-5,.2-7.48q0-397.19,0-794.35c0-2.16,0-4.33-.15-6.49-.14-1.92-.7-3.66-3.14-3.75-4.61-.85-9.22-.22-13.83,0-3.54.19-8.31-1.89-9.11,3.92a87.16,87.16,0,0,0-.39,12.94c.24,22.44.82,44.88.78,67.32Q803,280.36,802.44,351q-.74,101.36.41,202.75,1.18,105.86-.47,211.74c-.94,55.93-.2,111.89-.19,167.84,0,3.16.1,6.32.16,9.48-6.86,1.93-13.7,1.43-20.54-.12,1.12-9.47,0-19,.12-28.43.28-32.1.71-64.21.3-96.31-.19-15,0-29.94,0-44.91-.07-15.8-1.42-31.52-2-47.28s1.78-31.43,1.54-47.3c-.29-19.54-.49-39.17.06-58.77.7-24.75.1-49.53,0-74.3-.12-46.22.9-92.45.21-138.68-.31-21,0-41.91,0-62.87q0-45.9-.1-91.81,0-58.68,0-117.34c0-9.08-.73-9.74-9.68-9.19-10.34-.85-10.34-.85-10.34,9.27,0,1.67,0,3.33,0,5q0,394.54,0,789.09c0,2.16-.07,4.33-.26,6.48a2.21,2.21,0,1,1-4.42.08c-.22-2.81-.34-5.65-.34-8.47q0-396,0-792.09c0-10.32,0-10.32-10.33-9.38-7.63-.46-9.2,1.07-8.88,8.64.16,3.66.36,7.32.36,11q0,392.67.08,785.33c0,3.82.25,7.65.39,11.47a33.32,33.32,0,0,1-19.6-.3c.06-2.49.21-5,.19-7.48-.47-65.93.07-131.86-.62-197.79q-1.1-105.63.44-211.28c.93-58.6.06-117.23.29-175.85.06-14.32-1.27-28.6-.86-42.92.5-17.79.89-35.57.43-53.37-.25-9.29-.22-18.6-.26-27.9-.08-14.13.72-28.26.47-42.38-.32-17.45-1-34.89-.21-52.34.14-3.34-1.11-5.11-4.66-4.72-4.52-.36-9-.86-13.57-.09-6,.17-4.51,4.83-4.49,8.1.41,68.45-.18,136.9.52,205.35.71,69.6.39,139.22-.32,208.84-.71,69.77-1.18,139.56.49,209.34.59,24.81.08,49.64.11,74.46q.06,54.46.18,108.93c-.8.22-1.6.47-2.41.66-7.89,1.77-10.59-.31-10.7-8.24,0-2,0-4,0-6q0-395.78,0-791.53c0-1.84,0-3.67-.09-5.5-.16-4.43-3.21-4.82-6.65-4.78s-4.62,1.9-4.59,5.12c0,5-.18,10-.16,15,.29,66.62,0,133.24.39,199.87q.66,104.67-.25,209.36c-.6,77.28-.25,154.56.35,231.84.38,48.47.08,97,.06,145.42,0,7.9-1.2,9-8.12,7.67,0-1.66.11-3.33.11-5q0-371.47,0-742.95c0-19.65,0-39.31,0-59,0-2.5.8-5.52-2.51-6.92-4.58-.95-9.15-.31-13.73-.06-8.48-.55-8.71-.51-8.82,7.44-.2,14.79,0,29.59-.3,44.37-.29,13.28-.07,26.57-.17,39.84-.12,16.93-.14,33.89.42,50.85.87,26.23-.22,52.5.1,78.76.55,47.12.1,94.24.17,141.36.05,34.6.41,69.19.29,103.79,0,9.15.62,18.29.25,27.43-.73,18-.08,35.92-.42,53.87-.22,11.65.64,23.28.29,34.9-.45,15.08.7,30.15-.9,45.29-1.17,11.14.36,22.55.45,33.84.12,15.3,0,30.61,0,45.91q.06,54.71.13,109.39a55.26,55.26,0,0,1-20.55.14c.09-2.83.26-5.66.24-8.49-.47-66.26.06-132.52-.64-198.79-.73-69.08-.38-138.18.37-207.29.73-67.08,1.15-134.19-.51-201.28-.76-30.46-.17-60.95-.12-91.43,0-15.14.31-30.29.32-45.44,0-19.3-.2-38.6-.14-57.9,0-6-.23-6.57-6.17-6.79-1.49-.06-3,.12-4.48.19a55.9,55.9,0,0,0-13.74,0c-4-.51-5.39,1.69-5.41,5.29,0,1.83,0,3.66,0,5.49q0,395.45,0,790.89c0,4.16.09,8.32.13,12.48-3.63.55-7.25.86-10.71-.83.09-2.83.26-5.65.26-8.48q0-395.82,0-791.64c0-2.83,0-5.67-.09-8.5-.07-2.07-.45-4-3-4.58-3.13-.33-6.27-.92-9.4,0-2.58,2.64-1.61,6-1.61,9q-.07,397,0,793.91c0,2.82.3,5.64.47,8.46-5.37,1.8-6.83,1-7.15-4.28-.11-1.82-.06-3.66-.06-5.49q0-396.61,0-793.24c0-1.5,0-3-.11-4.49-.16-3-1.6-4.6-4.75-4.45-3.83.18-7.66.29-11.48.44-9.39-.69-11.84.66-11.15,7.36,1,9.83,0,19.63-.06,29.41q0,30.66,0,61.33c0,22.94-.26,45.88-.36,68.82-.09,17.47.69,34.94.67,52.38-.08,69.59.3,139.18-.51,208.78-.82,71.08-1.08,142.19.58,213.28.7,29.79.1,59.61.12,89.42q0,43.22.15,86.42a59.31,59.31,0,0,1-25.37-.07c1.19-4.35-.73-8.61-.45-12.89,1.47-22.59.05-45.2.46-67.81.37-19.92-.55-39.88-.08-59.8.62-26.61-.54-53.19-.09-79.79.19-10.79-1-21.61-.52-32.37,1-24.91,0-49.82.29-74.72.22-18.28-.25-36.58-.08-54.87.08-8,1.77-16.07,1-23.87-1.43-14.5-.09-28.91-.32-43.34-.36-22.09.19-44.19,0-66.28-.33-33.94.78-67.9-.71-101.83-.32-7.35.91-14.62.31-21.92-1.22-14.93-.52-29.9-1-44.84-.45-15.25.13-30.59.26-45.89.16-19.13.19-38.27-.06-57.4-.09-7.79,1.65-15.6-.17-23.37-1.05-4.5-3.44-7.16-8.49-6.12-6.83-.37-13.65-.83-20.48,0-4.91-.8-6.71,1.61-6.57,6.21.1,3,0,6,0,9q0,354.79,0,709.61c0,30.48.15,61,.23,91.44A25.67,25.67,0,0,1,460.16,942.91Z" transform="translate(-458.57 -117.36)" fill="#b11112" stroke="#000" stroke-miterlimit="10" stroke-width="3"/>
    <g>
      <path d="M1302.71,942.71c-2.11-.41-4.24-.75-6.34-1.24-3.53-.84-5.44-3-5.35-6.76,0-2,0-4,0-6,0-54.14.76-108.28-.19-162.4q-1.89-106.68-.5-213.33,1.2-104.42.38-208.83c-.46-49.29-.49-98.58-.53-147.86,0-23.59-.33-47.2,1-70.77,1.49-.07,3-.24,4.48-.19,5.91.18,7.1,1.68,7.06,7.66-.13,16.62-.06,33.23-.17,49.85-.1,16.28-.6,32.57-.42,48.85.24,22,.09,43.93.1,65.88,0,15.27,1.19,30.53.16,45.86-1,14.22.34,28.57.19,42.85-.19,19.94.66,39.9-.55,59.82-.49,8,.9,16,.82,23.95-.17,17.3-.85,34.61-.43,51.89.52,21.45-.23,42.88-.29,64.32,0,11.64.51,23.28.37,34.92-.18,15.44.32,30.87-.28,46.32-.42,10.8.19,21.63.22,32.44,0,10.48-.17,21-.15,31.44,0,15.28.09,30.57.36,45.85.14,7.65-.9,15.26-.37,22.95.74,10.76.64,21.59,1.34,32.36.73,11.34-1,22.58-.78,33.89.37,16.12.75,32.25.8,48.37C1303.67,924.1,1303.05,933.4,1302.71,942.71Z" transform="translate(-458.57 -117.36)" fill="#7b1111" stroke="#000" stroke-miterlimit="10" stroke-width="3"/>
      <path d="M941.61,125.48c0,22.61.55,45.24-.25,67.82-.67,19,1.66,37.89.1,56.89-.84,10.23.45,20.63.42,30.95-.06,20.27-1,40.57-.39,60.82.67,22.61-.38,45.19.15,67.8.62,26.91-.87,53.86-.53,80.78,1.85,145.39.28,290.79.83,436.18,0,1,0,2,0,3,0,10.75-1.84,12.62-12.71,13q-.08-53.22-.16-106.44c0-31,.59-62-.22-92.93-.47-17.81,1.61-35.63.34-53.28-1-14.28,1.88-28,1.93-42.07,0-8.81-.36-17.62-.43-26.42-.15-19.11-.15-38.22-.32-57.33-.09-9,1.23-18,.87-26.85-.53-13,.22-25.87,0-38.81-.19-11.59-.65-23.2.33-34.82.53-6.26-.25-12.59-.14-18.91.31-18,.51-35.94.09-53.85-.53-22.93.84-45.85-.86-68.81-1.26-17,.29-34.22.34-51.35,0-16.3-.28-32.6-.36-48.9q-.1-21.43,0-42.87.08-22,.31-43.91C931.06,126.09,932.55,124.78,941.61,125.48Z" transform="translate(-458.57 -117.36)" fill="#7b1111" stroke="#000" stroke-miterlimit="10" stroke-width="3"/>
      <path d="M619.74,942.69c-1-.22-2-.4-2.91-.68-7.7-2.17-8.47-3.13-8.48-11.1q0-66.45,0-132.91,0-332,0-664c0-2.83.16-5.66.25-8.48,1.5-.07,3-.25,4.49-.19,5.94.22,6.18.8,6.17,6.79-.06,19.3.16,38.6.14,57.9,0,15.15-.29,30.3-.32,45.44-.05,30.48-.64,61,.12,91.43,1.66,67.09,1.24,134.2.51,201.28-.75,69.11-1.1,138.21-.37,207.29.7,66.27.17,132.53.64,198.79C620,937,619.83,939.86,619.74,942.69Z" transform="translate(-458.57 -117.36)" fill="#7b1111" stroke="#000" stroke-miterlimit="10" stroke-width="3"/>
      <path d="M541.9,125.52c-1.1,21.29-1.48,42.64-.46,63.89,1.18,24.59-.63,49.12.24,73.72.78,22-.71,44.22,0,66.31.48,14.61,1.73,29.4.33,43.75-1.48,15.07.6,29.85.2,44.77-.45,16.84-.32,33.77-.18,50.66.14,16.06-1.26,32.18-.43,48.19,1,19.48-1.53,38.94,0,58.25,1,12.27.19,24.46.38,36.63.21,13.32.69,26.73.26,40.14-.36,11.45-.8,23,.37,34.57.58,5.67-.83,11.4-.8,17.22,0,10.89.1,21.75.79,32.63.35,5.45-.7,11-.44,16.45.73,15.81-1.29,31.66-.26,47.34.87,13.32.13,26.57.22,39.8.14,19.08.75,38.18.2,57.29-.19,6.54-.65,13.16-.37,19.81.27,6.14.32,12.53,0,18.8-.22,4.87-2.72,6.38-10.72,7q-.08-43.22-.15-86.43c0-29.81.58-59.63-.12-89.42-1.66-71.09-1.4-142.2-.58-213.28.81-69.6.43-139.19.51-208.78,0-17.44-.76-34.91-.67-52.38.1-22.94.38-45.88.36-68.82q0-30.66,0-61.33c0-9.78,1.07-19.58.06-29.41C530.06,126.18,532.51,124.83,541.9,125.52Z" transform="translate(-458.57 -117.36)" fill="#7b1111" stroke="#000" stroke-miterlimit="10" stroke-width="3"/>
      <path d="M781.81,942.7c-2.09-.5-4.18-1-6.28-1.5-3.49-.79-4.85-3.06-4.83-6.53,0-8.14-.41-16.3,0-24.41.85-15.14-.32-30.26-.21-45.39.14-17.42.49-34.86.36-52.3-.11-16.94-1-33.89.14-50.86.53-8.09-.68-16.28-.7-24.43q-.12-62.67,0-125.34c.05-29,.41-57.91.34-86.86-.07-23.26,0-46.52.14-69.77.08-15.24-.63-30.49.85-45.81a234.38,234.38,0,0,0,.8-40.3c-1.19-15.55-.34-31.26-.34-46.9q0-56.44,0-112.88,0-42,.22-83.91c8.95-.55,9.68.11,9.68,9.19q0,58.67,0,117.34,0,45.9.1,91.81c0,21-.34,41.92,0,62.87.69,46.23-.33,92.46-.21,138.68.06,24.77.66,49.55,0,74.3-.55,19.6-.35,39.23-.06,58.77.24,15.87-2.11,31.52-1.54,47.3s1.92,31.48,2,47.28c.06,15-.16,29.94,0,44.91.41,32.1,0,64.21-.3,96.31C781.84,923.75,782.93,933.23,781.81,942.7Z" transform="translate(-458.57 -117.36)" fill="#7b1111" stroke="#000" stroke-miterlimit="10" stroke-width="3"/>
      <path d="M1209.76,125.53c.08,13.48.23,27,.25,40.44q0,50.42,0,100.83c0,15.33-.33,30.66,0,46,1.8,72.6,1.41,145.23.61,217.82-.76,69.28-1.1,138.56-.35,207.82.69,64.62.11,129.23.61,193.83.06,8.48-1,9.53-9.6,10.55q-.12-46.95-.23-93.91c0-31.13.67-62.29-.15-93.41-1.79-67.75-1.26-135.52-.54-203.26.61-57.44,1-114.87.49-172.3-.65-80.07-.72-160.14-.81-240.21,0-1.83,0-3.66,0-5.5C1200.13,125.66,1200.86,125,1209.76,125.53Z" transform="translate(-458.57 -117.36)" fill="#7b1111" stroke="#000" stroke-miterlimit="10" stroke-width="3"/>
      <path d="M1144.68,125.5c1.91,13.24,1,26.59,1,39.85q.3,382.4.17,764.79c0,9.49-1.16,10.93-9.44,11.9-.1-3.32-.29-6.65-.29-10q0-397.41,0-794.83c0-1.33,0-2.67,0-4C1136.23,125.8,1137.05,125.05,1144.68,125.5Z" transform="translate(-458.57 -117.36)" fill="#7b1111" stroke="#000" stroke-miterlimit="10" stroke-width="3"/>
      <path d="M506,942.65c-7.61-.87-7.22-1-8.42-8.12-1.8-10.68-.43-21.27,0-31.88.15-3.67.18-7.31,0-11-2.4-42.24-.56-84.54-1.52-126.79-1.6-70.45-.48-140.9-.78-211.34-.06-14,1.18-27.95,1.19-41.92,0-50.78.4-101.57-.44-152.34-1.1-66-.65-131.9-.76-197.85,0-12-.46-24,1.13-35.9,5.06-1,7.45,1.62,8.5,6.12,1.82,7.77.08,15.58.17,23.37.25,19.13.22,38.27.06,57.4-.13,15.3-.71,30.64-.26,45.89.45,14.94-.25,29.91,1,44.84.6,7.3-.63,14.57-.31,21.92,1.49,33.93.38,67.89.71,101.83.21,22.09-.34,44.19,0,66.28.23,14.43-1.11,28.84.32,43.34.77,7.8-.92,15.87-1,23.87-.17,18.29.3,36.59.08,54.87-.31,24.9.73,49.81-.29,74.72-.43,10.76.71,21.58.52,32.37-.45,26.6.71,53.18.09,79.79-.47,19.92.45,39.88.08,59.8-.41,22.61,1,45.22-.46,67.81C505.22,934,507.14,938.3,506,942.65Z" transform="translate(-458.57 -117.36)" fill="#7b1111" stroke="#000" stroke-miterlimit="10" stroke-width="3"/>
      <path d="M811.79,125.51c.09,44.61-.32,89.23.53,133.83.32,16.78.85,33.61.38,50.34-.84,29.47-.41,58.92-.56,88.37-.11,20.94.31,41.89.71,62.83.36,18.92-.76,37.87-.54,56.8.18,15.11-.63,30.23.37,45.35.47,7.12-.07,14.3-.14,21.45-.19,18.6.37,37.23.08,55.81-.23,14.28,0,28.58-.28,42.87-.41,18.61.1,37.25.15,55.87,0,14.13,0,28.26-.06,42.39,0,19.62-.55,39.24,0,58.86.3,10.14-.69,20.32-.27,30.45.75,18.13-.27,36.25.44,54.37.1,2.64-.3,5.31-.45,8-.45,8.1-1.67,9.31-9.84,9.76-.05-3.16-.15-6.32-.15-9.48,0-56-.75-111.91.19-167.84q1.75-105.87.47-211.74-1.14-101.38-.41-202.75.51-70.67.63-141.32c0-22.44-.54-44.88-.78-67.32a87.16,87.16,0,0,1,.39-12.94C803.48,123.62,808.25,125.7,811.79,125.51Z" transform="translate(-458.57 -117.36)" fill="#7b1111" stroke="#000" stroke-miterlimit="10" stroke-width="3"/>
      <path d="M901.85,941.88c-7.89-.33-8.66-1.6-8.93-9.62-.92-27.62.42-55.23,0-82.86-.48-31.45.48-62.92,0-94.37-.35-21.12-.18-42.24-.59-63.35-.25-12.95.78-25.93.37-38.87-.68-20.95-.2-41.89-.33-62.84-.14-22.26.61-44.53.71-66.8.14-29.79,0-59.57,0-89.36,0-32.3.06-64.6,0-96.91-.07-22.61-.56-45.23-.5-67.85.07-29.43-.24-58.85.35-88.28.32-15.93-.35-31.89-.47-47.83a62.81,62.81,0,0,1,.84-7.43c7.88-.44,8.91.56,8.91,9.18q0,89.67,0,179.36c0,16.44.84,32.88.87,49.32.12,53.44.47,106.89-.13,160.33-.3,26.79-.76,53.59-.77,80.4,0,46.43-.51,92.88.19,139.3.59,39.43.51,78.85.73,118.27.13,23,0,45.9,0,68.84C903.11,934.35,903.1,938.18,901.85,941.88Z" transform="translate(-458.57 -117.36)" fill="#7b1111" stroke="#000" stroke-miterlimit="10" stroke-width="3"/>
      <path d="M1444.82,125.52c1.17,3.2,1.1,6.54,1.1,9.87q0,398.1,0,796.2c0,8.62-.46,9.16-8.74,11.06-.07-25.3-.18-50.61-.2-75.92,0-34,.62-68-.14-101.9-1.58-70.58-1.33-141.18-.54-211.75.78-69.75,1.06-139.51.37-209.25-.52-52.77-.14-105.54-.66-158.3-.17-17.46,1.22-34.9.33-52.37C1436,126.68,1437.92,125.24,1444.82,125.52Z" transform="translate(-458.57 -117.36)" fill="#7b1111" stroke="#000" stroke-miterlimit="10" stroke-width="3"/>
      <path d="M1018.7,942.72a24.32,24.32,0,0,1-7.21-1.85,5.8,5.8,0,0,1-4.23-6.06q.06-25.72.1-51.45c0-10.15.07-20.29,0-30.44-.07-41.11-.25-82.23,0-123.35.1-19,.68-37.93.05-56.88-.71-21.48,1.78-42.85,1.59-64.31-.31-37.29-.3-74.59-.33-111.88,0-20.65-.81-41.37.6-61.92,1.19-17.32.11-34.56.08-51.78,0-17.57.53-35.16.35-52.74-.16-15.89-.76-31.87.21-47.86.57-9.33,0-18.91,0-28.37.06-20,.55-39.89.69-59.84.15-20.63.09-41.27.13-61.9,0-2.16.13-4.32.2-6.49,5.58.08,6.84,1.29,6.84,6.61q0,97.15.09,194.31c0,30.61.33,61.23.33,91.84,0,31.45-.29,62.9-.31,94.34q-.06,116.67,0,233.34c0,32.61-.13,65.22,0,97.83.14,30.46.6,60.91.9,91.36C1018.88,937.72,1018.76,940.22,1018.7,942.72Z" transform="translate(-458.57 -117.36)" fill="#7b1111" stroke="#000" stroke-miterlimit="10" stroke-width="3"/>
      <path d="M1416.73,942.51c-8-1.42-8.83-2.29-8.84-10.37,0-58.81,1.67-117.68-.45-176.4C1405,686.8,1405,617.86,1406.57,549c1.49-66.44.31-132.83,1.21-199.23.23-17.26-2.48-34.44-1.93-51.78.82-25.76,1.29-51.54,1.17-77.31-.08-19.25.17-38.5-.44-57.77-.4-12.42.31-24.95.59-37.42,7.94-.43,10,1.43,9.37,9.93-1.21,15.14-.51,30.26-.09,45.37.36,13-.9,26-.45,38.88,1,30.58-.17,61.16.45,91.75q.73,37.1.19,74.3c-.34,22.57-.44,45.16-.43,67.74,0,19.1.46,38.21.41,57.31-.06,26.58-1.06,53.17-.45,79.73.56,24.78-.62,49.53,0,74.3.28,11.58.14,23.26,0,34.88-.18,22.93-.84,45.88.33,68.83.54,10.75-.72,21.6-.29,32.37.59,15-1,29.94.2,44.87.83,10.33-.21,20.61,0,30.91.32,18.28.09,36.56.12,54.84C1416.53,935.19,1416.66,938.85,1416.73,942.51Z" transform="translate(-458.57 -117.36)" fill="#7b1111" stroke="#000" stroke-miterlimit="10" stroke-width="3"/>
      <path d="M1047.71,125.51c.16,25.08-.57,50.16-.15,75.26.21,12.41.17,24.93,0,37.38-.23,15.59-.07,31.24,0,46.85.13,22.47-.55,44.93-.46,67.39.1,23.14.4,46.29.36,69.41,0,16.78-.23,33.6-.17,50.39q.09,22.69,0,45.4c-.11,17.63.88,35.25.22,52.88-.32,8.46.2,17,.19,25.44q-.06,24.4-.31,48.83c-.17,15.3.1,30.6.12,45.9q0,22.67-.11,45.34c-.17,28-.27,55.92.06,83.88.23,20.27,0,40.6-.31,60.9-.28,17.81,0,35.62-.09,53.44,0,6.21-1.18,7.21-7.71,7.85-1.39-2.77-1.5-5.78-1.49-8.78.07-21,.26-41.94.24-62.91,0-30.63-.51-61.26-.2-91.88.24-23.8-.23-47.59-.21-71.38,0-25.12.45-50.25.36-75.38-.07-20.77-.18-41.54,0-62.31.15-24.75-.74-49.51-.7-74.27,0-22.43.8-44.87,1.06-67.3.15-12.64.06-25.28-.18-37.91-.18-9.16.57-18.29.72-27.43.2-12.47-.79-24.95-.76-37.43.05-21.45.8-42.89.71-64.34-.1-23.61-1.55-47.24-1-70.83.31-12.76,1-25.54,1.09-38.33,0-6.16-.07-12.33.17-18.48C1039.42,125.34,1040,125,1047.71,125.51Z" transform="translate(-458.57 -117.36)" fill="#7b1111" stroke="#000" stroke-miterlimit="10" stroke-width="3"/>
      <path d="M648.77,125.51q.16,402.57.34,805.14c0,9.71-.45,10.3-8.83,11.9q0-54.69-.12-109.39c0-15.3.09-30.61,0-45.91-.09-11.29-1.62-22.7-.45-33.84,1.6-15.14.45-30.21.9-45.29.35-11.62-.51-23.25-.29-34.9.34-18-.31-35.91.42-53.87.37-9.14-.28-18.28-.25-27.43.12-34.6-.24-69.19-.29-103.79-.07-47.12.38-94.24-.17-141.36-.32-26.26.77-52.53-.1-78.76-.56-17-.54-33.92-.42-50.85.1-13.27-.12-26.56.17-39.84.33-14.78.1-29.58.3-44.37C640.06,125,640.29,125,648.77,125.51Z" transform="translate(-458.57 -117.36)" fill="#7b1111" stroke="#000" stroke-miterlimit="10" stroke-width="3"/>
      <path d="M1336.06,125.64c1.92,8.59.63,17.26.66,25.9,0,16.29-.18,32.59.19,48.88.31,14.15-.34,28.27-.23,42.41.18,21.79,0,43.58-.1,65.36,0,21.1.52,42.25.21,63.33-.46,31.43.91,62.83-.12,94.26-.69,20.93.12,41.9.45,62.86.12,7.29-1.24,14.42-1,21.81.52,19.77.89,39.56.75,59.36-.16,23.43-.32,46.9.1,70.35.29,16-.33,31.92-.39,47.88,0,10.47,0,20.94.36,31.4.22,7-.16,14-.19,21-.08,16.3.33,32.59.35,48.88,0,12.63-.38,25.26-.42,37.89-.05,18.28,0,36.56.09,54.85,0,3.49-.13,7,0,10.47.37,8.09-1.32,10-9.56,10.31-.06-16-.17-32-.18-48,0-43.64-.75-87.3.16-130.93,1.46-69.95,1.3-139.91.52-209.85q-1.07-94.93-.42-189.86c.16-29.62.18-59.26,1-88.89a174.68,174.68,0,0,0-.54-23.45c-.82-7.72.72-15.24.7-22.89,0-19.62,1.26-39.24,1-58.85-.18-12.81-.08-25.6,0-38.39C1329.47,125.75,1329.78,125.32,1336.06,125.64Z" transform="translate(-458.57 -117.36)" fill="#7b1111" stroke="#000" stroke-miterlimit="10" stroke-width="3"/>
      <path d="M1119.43,942c-7.38-1.11-8.39-2.28-8.4-10.17q0-93.71,0-187.41,0-153.69,0-307.37c0-35.3.25-70.6-.14-105.89-.28-25.8.15-51.59.14-77.38,0-23.95-.66-47.92.3-71.89.62-15.62-.15-31.28-.26-46.93,0-3.16.14-6.32.22-9.48,8-.38,8.39,0,8.41,9.25q.09,70.94.17,141.85,0,327,0,653.95C1119.84,934.39,1119.57,938.21,1119.43,942Z" transform="translate(-458.57 -117.36)" fill="#7b1111" stroke="#000" stroke-miterlimit="10" stroke-width="3"/>
      <path d="M1178.58,942.11c-7.68-1.21-8.55-2.29-8.55-11.1q0-192.82,0-385.65,0-146.13,0-292.24c0-22.28-1.29-44.59-.5-66.84.53-15.14-.1-30.25.48-45.36.2-5.14-.36-10.3-.56-15.45,7.87-.46,8.65.25,8.65,8.08,0,63.78-.83,127.57.25,191.33q1.73,102.9.43,205.77c-.74,65.26-1.06,130.53-.41,195.77.68,68.58.37,137.16.69,205.73C1179.06,935.47,1178.74,938.79,1178.58,942.11Z" transform="translate(-458.57 -117.36)" fill="#7b1111" stroke="#000" stroke-miterlimit="10" stroke-width="3"/>
      <path d="M746.65,125.49c-1.11,39.45-.42,78.91-.57,118.36-.1,25.81-.5,51.64.11,77.43.57,23.93.28,47.86.53,71.78.27,25.58-.17,51.17-.24,76.75-.06,21.1,0,42.19,0,63.29q-.15,66.42-.35,132.86c-.06,25.14-.54,50.3.11,75.43.7,27.42.23,54.82.49,82.23.28,29.07-.13,58.14-.22,87.21,0,7.31,0,14.61,0,21.92,0,7.48-.41,7.89-7.85,9.16-.14-3.82-.39-7.65-.39-11.47q0-392.67-.08-785.33c0-3.66-.2-7.32-.36-11C737.45,126.56,739,125,746.65,125.49Z" transform="translate(-458.57 -117.36)" fill="#7b1111" stroke="#000" stroke-miterlimit="10" stroke-width="3"/>
      <path d="M475.83,125.5c1.11,17.44.49,34.9.45,52.35q0,17.72,0,35.43c0,18.45,0,36.91.12,55.36.17,23.44.23,46.9.35,70.34.12,24.26-.14,48.55-.1,72.81.06,32.74-.18,65.49.05,98.23.15,22.59.46,45.19-.31,67.81-.47,13.92-.45,27.93.23,41.91.48,10-.45,20-.46,29.93,0,31.61-.37,63.22.27,94.82.57,28.11.3,56.22.51,84.33.27,34.26-.1,68.52-.21,102.78,0,7.88-.69,8.75-7.23,10.16-.08-30.48-.23-61-.23-91.44q0-354.81,0-709.61c0-3,.12-6,0-9C469.12,127.11,470.92,124.7,475.83,125.5Z" transform="translate(-458.57 -117.36)" fill="#7b1111" stroke="#000" stroke-miterlimit="10" stroke-width="3"/>
      <path d="M594.87,125.52A208.37,208.37,0,0,1,596.06,149c-.07,55.46.65,110.94-.21,166.39q-1.65,107.43-.43,214.84c.7,67.28,1,134.57.35,201.84-.64,66.12-.17,132.23-.63,198.34,0,4.14.57,8.78-5.57,9.3,0-4.16-.13-8.32-.13-12.48q0-395.45,0-790.89c0-1.83,0-3.66,0-5.49C589.48,127.21,590.85,125,594.87,125.52Z" transform="translate(-458.57 -117.36)" fill="#7b1111" stroke="#000" stroke-miterlimit="10" stroke-width="3"/>
      <path d="M874.69,125.49c-1.42,66.11-1.23,132.25-.35,198.34q1.41,104.43.39,208.82c-.77,68.45-1.11,136.9-.36,205.33.71,64.62.12,129.23.63,193.84,0,4.16.55,8.75-5.54,9.35-1.27-15.12-.49-30.27-.61-45.4-.23-28-.1-55.94-.07-83.91,0-16.64.67-33.31.08-49.93-1.05-29.63-.67-59.26-.74-88.89-.1-41-.54-81.95.15-122.9.47-27.46.6-54.91.67-82.36.09-41.11.63-82.24-.17-123.35-1.35-69.76-.15-139.53-.68-209.29,0-1.16.06-2.33,0-3.5C868,127.06,869.76,124.61,874.69,125.49Z" transform="translate(-458.57 -117.36)" fill="#7b1111" stroke="#000" stroke-miterlimit="10" stroke-width="3"/>
      <path d="M1251.5,941.19c-4-.32-5.44-2.74-5.47-6.41,0-1.66,0-3.33,0-5q0-370,0-739.93,0-27.21,0-54.44c0-3.33-.07-6.67,1.07-9.88,3.54-.33,4.8,1.68,4.86,4.82.07,3.66.08,7.32.08,11q0,90.45,0,180.91c0,24.12,0,48.24,0,72.37-.09,22.6-.66,45.21-.46,67.82.79,91.07.65,182.14.36,273.22-.09,28.59-.1,57.2-.35,85.8-.19,20.92-.14,41.9.31,62.85C1252.17,903.27,1251.62,922.23,1251.5,941.19Z" transform="translate(-458.57 -117.36)" fill="#7b1111" stroke="#000" stroke-miterlimit="10" stroke-width="3"/>
      <path d="M852.08,940.71c-5-.5-4.9-4.19-4.91-7.78q0-32.73,0-65.45,0-367.74,0-735.49c0-2.16.15-4.32.23-6.48,3.31-.48,4.59,1.39,4.74,4.3s.14,6,.14,9q0,397.47,0,794.93C852.3,936.06,852.15,938.38,852.08,940.71Z" transform="translate(-458.57 -117.36)" fill="#7b1111" stroke="#000" stroke-miterlimit="10" stroke-width="3"/>
      <path d="M700.64,125.49c.1,14.82.27,29.63.28,44.45q0,379.64,0,759.27c0,2.17,0,4.34-.17,6.49-.15,2.35-1.17,4.15-3.62,4.81Q697,886,697,831.58c0-24.82.48-49.65-.11-74.46-1.67-69.78-1.2-139.57-.49-209.34.71-69.62,1-139.24.32-208.84-.7-68.45-.11-136.9-.52-205.35C696.13,130.32,694.62,125.66,700.64,125.49Z" transform="translate(-458.57 -117.36)" fill="#7b1111" stroke="#000" stroke-miterlimit="10" stroke-width="3"/>
      <path d="M1391.72,125.54c.07,2.66.22,5.32.22,8q0,397.14,0,794.27c0,2.16,0,4.33-.15,6.49s-.92,4.27-3.62,4.65c-.12-3.16-.33-6.32-.33-9.48,0-52,.58-103.94-.16-155.9q-1.57-111.16-.45-222.32c.72-69.78,1-139.56.33-209.33-.68-68.61-.07-137.22-.57-205.83,0-2.16,0-4.33.16-6.49C1387.4,126.85,1388.72,125.22,1391.72,125.54Z" transform="translate(-458.57 -117.36)" fill="#7b1111" stroke="#000" stroke-miterlimit="10" stroke-width="3"/>
      <path d="M1270.9,125.59c.09,3.66.25,7.32.25,11,0,62.78-.8,125.57.24,188.33q1.63,97.67.46,195.29c-.78,72.59-1.21,145.19-.4,217.77.72,64.77.13,129.53.64,194.29,0,3.92.78,8.39-4.94,9.34-.06-2.83-.19-5.66-.19-8.49q0-294.26,0-588.51,0-105.66,0-211.32C1267,130.25,1265.68,126.13,1270.9,125.59Z" transform="translate(-458.57 -117.36)" fill="#7b1111" stroke="#000" stroke-miterlimit="10" stroke-width="3"/>
      <path d="M719,941.61c-3.9-.46-4.8-3.38-4.82-6.5-.08-12.64.05-25.28.07-37.92q0-16.7,0-33.38,0-19.71,0-39.42,0-17.43,0-34.88c0-16.29.18-32.59.16-48.89,0-28.27-.21-56.54-.24-84.82,0-12,.24-23.94.24-35.91,0-20.13-.48-40.26-.12-60.38.33-18.12-.08-36.23.06-54.34.07-10.11.2-20.28,0-30.42-.28-13.61-.46-27.25.15-40.9.39-9,.21-18-.12-26.9-.69-19,1.24-37.9.06-56.9-1-15.38,0-30.89.15-46.34.18-13.65-.59-27.28-.53-40.94.07-17.14.39-34.28.33-51.42q-.11-35.41,0-70.83c0-5,.79-10-.14-14.94,3.55-.39,4.8,1.38,4.66,4.72-.74,17.45-.11,34.89.21,52.34.25,14.12-.55,28.25-.47,42.38,0,9.3,0,18.61.26,27.9.46,17.8.07,35.58-.43,53.37-.41,14.32.92,28.6.86,42.92-.23,58.62.64,117.25-.29,175.85q-1.68,105.65-.44,211.28c.69,65.93.15,131.86.62,197.79C719.21,936.62,719.06,939.12,719,941.61Z" transform="translate(-458.57 -117.36)" fill="#7b1111" stroke="#000" stroke-miterlimit="10" stroke-width="3"/>
      <path d="M976.93,938.74c-4.43-.89-3.85-4.51-3.87-7.54-.1-15.32-.06-30.64-.06-46q0-376.12,0-752.23c0-2.49.16-5,.25-7.48,3.92.25,3.73,3.25,3.76,5.87.09,9,.06,18,.06,27q0,386.17,0,772.36C977.14,933.41,977,936.08,976.93,938.74Z" transform="translate(-458.57 -117.36)" fill="#7b1111" stroke="#000" stroke-miterlimit="10" stroke-width="3"/>
      <path d="M839.06,125.46c.16,2.65.46,5.3.46,8q0,396.75,0,793.5c0,3.53,1.6,7.93-3.23,10.07-.12-2.66-.36-5.32-.36-8q0-396.88,0-793.78a59.63,59.63,0,0,1,.17-6C836.2,127.42,836.52,125.5,839.06,125.46Z" transform="translate(-458.57 -117.36)" fill="#7b1111" stroke="#000" stroke-miterlimit="10" stroke-width="3"/>
      <path d="M828.72,937.58c-3.45-1.8-2.63-5.12-2.64-8q-.11-43,0-85.92c0-27.47.45-55-.09-82.42-1.39-70.42-1.1-140.85-.45-211.26.65-69.92.92-139.85.3-209.76-.61-68.43-.08-136.85-.52-205.27,0-3.16.22-6.31.34-9.47,2.44.09,3,1.83,3.14,3.75.16,2.16.15,4.33.15,6.49q0,397.17,0,794.35C828.92,932.59,828.79,935.09,828.72,937.58Z" transform="translate(-458.57 -117.36)" fill="#7b1111" stroke="#000" stroke-miterlimit="10" stroke-width="3"/>
      <path d="M578.86,938.84c-2.73-.29-3.54-2.22-3.71-4.54-.15-2.16-.15-4.33-.15-6.49,0-53.12-.68-106.25.15-159.36q1.73-109.14.46-218.27c-.71-68.1-1.07-136.2-.36-204.28.75-71.93.17-143.85.6-215.77,0-1.5.14-3,.22-4.49,2.51.54,2.89,2.51,3,4.58.1,2.83.09,5.67.09,8.5q0,395.82,0,791.64C579.12,933.19,579,936,578.86,938.84Z" transform="translate(-458.57 -117.36)" fill="#7b1111" stroke="#000" stroke-miterlimit="10" stroke-width="3"/>
      <path d="M664.93,939.39c-2.31-.86-2.56-2.88-2.65-4.91-.1-2.33-.09-4.66-.09-7q0-397,0-793.94c0-2.66.2-5.31.31-8,3.32,1.4,2.51,4.42,2.52,6.92.08,19.65,0,39.31,0,59q0,371.48,0,743C665,936.06,665,937.73,664.93,939.39Z" transform="translate(-458.57 -117.36)" fill="#7b1111" stroke="#000" stroke-miterlimit="10" stroke-width="3"/>
      <path d="M1226.51,937.12c-2.09-1.12-2.3-3.13-2.37-5.15-.08-2.17-.06-4.33-.06-6.5q0-395.22,0-790.43c0-3.16.19-6.32.29-9.48,2.28.64,2.43,2.54,2.52,4.38.1,2.16.09,4.33.09,6.49q0,394.88,0,789.73C1227,929.81,1226.67,933.47,1226.51,937.12Z" transform="translate(-458.57 -117.36)" fill="#7b1111" stroke="#000" stroke-miterlimit="10" stroke-width="3"/>
      <path d="M1097.1,125.66q.12,46.93.22,93.89c0,35.29-.56,70.6.18,105.88.59,28.12.3,56.23.54,84.34.34,40.77.67,81.55-.07,122.31-1.22,68.09-.76,136.18-.43,204.26.19,38.77.24,77.54.53,116.31.2,26.29,0,52.58,0,78.87,0,3.26.51,6.81-2.9,9-.06-7.49-.18-15-.18-22.48,0-51.63.7-103.27-.19-154.89-1.21-70.77-1.18-141.55-.44-212.31.73-69.44,1.07-138.89.35-208.31s-.12-138.88-.54-208.32C1094.15,131.22,1092.62,127.3,1097.1,125.66Z" transform="translate(-458.57 -117.36)" fill="#7b1111" stroke="#000" stroke-miterlimit="10" stroke-width="3"/>
      <path d="M965.41,125.55c.12,2.32.36,4.65.36,7q.06,398,0,796c0,3.16,1.11,6.83-2.48,9.09-.06-1.66-.2-3.33-.2-5,0-59.8-.57-119.61.14-179.4q1.17-97.46.3-194.88c-.55-71.13-.77-142.25-.26-213.37.48-67.46.13-134.91.44-202.37,0-4-.19-8-.25-12C963.44,128.69,962.8,126.48,965.41,125.55Z" transform="translate(-458.57 -117.36)" fill="#7b1111" stroke="#000" stroke-miterlimit="10" stroke-width="3"/>
      <path d="M1072.45,125.62c.15,2.49.42,5,.42,7.46q0,398.07,0,796.14c0,3.2,1,6.75-1.84,9.45-.11-2.49-.31-5-.31-7.48q0-397.8,0-795.59C1070.75,132.25,1069.56,128.54,1072.45,125.62Z" transform="translate(-458.57 -117.36)" fill="#7b1111" stroke="#000" stroke-miterlimit="10" stroke-width="3"/>
      <path d="M566.67,125.63c.13,2.49.37,5,.37,7.47q0,396.89,0,793.79c0,3.42.8,7-1.53,10.14-.17-2.82-.47-5.64-.47-8.46q0-396.95,0-793.91C565.06,131.62,564.09,128.27,566.67,125.63Z" transform="translate(-458.57 -117.36)" fill="#7b1111" stroke="#000" stroke-miterlimit="10" stroke-width="3"/>
    </g>
  </g>
</svg>
