<svg id="Layer_1" data-name="Layer 1" xmlns="http://www.w3.org/2000/svg" viewBox="0 0 275.18 128.19">
  <g>
    <path d="M1676.81,234.68c3-17.43,18.53-37.18,32.14-39.85-.52,4.55-1,8.84-1.62,13.66l11.78-1.31c-3.11,4.29-5.65,7.18-7.48,10.51-1.67,3.11-2.54,6.61-4.3,10.81a44.83,44.83,0,0,1-6.83,4c0-2.15-.39-4.38,0-6.44a69.06,69.06,0,0,1,2.76-8.19l-11.74-3.33c-1.27,2.28-2.76,4.87-4.6,7.8-4.9,7.22-7.79,14.58-6.39,23.65-2.32,6-4.12,11.47-6.57,16.64-2.19,4.59-1.4,7.22,3.41,8.23,7.27-8.63,14.28-17,21.33-25.36,3.07-3.63,6.13-7.22,9.2-10.86,6.57-8.36,12.57-17.6,22.72-21.85,7-2.93,14.72-4.33,22.21-6,1.79-.39,3.94.84,7.88,1.8-6.48,5.39-11.47,9.5-16.16,13.4l10.55,3.59c-1.88,3.37-3.72,6.79-5.86,10.64.26.18,1.57,1,3.37,2.23-5.08,10.86-14.89,17.65-23.39,25.45.13.57.31,1.09.44,1.66,5.87-.31,11.78-.17,17.52-1,7.84-1.13,15.76-2.4,23.21-4.86a30.38,30.38,0,0,0,12.26-8.32c6.61-7.31,12.08-15.63,18.65-23,4.29-4.81,9.64-8.76,14.72-12.87,1.22-1,3.24-.88,6.43-1.67-2,4.82-3.46,8-5.34,11.87-.87.83-1.05,1.18-.92,1.67-.57.61-1.14,1.27-2.32,2.4a22.26,22.26,0,0,0-1.88,4c.74-.22,1.53-.39,2.28-.61a17.33,17.33,0,0,0,2.8-.26c1.18-.44,1.44-.75,1.53-1.23,6.22-1.88,12.44-3.72,18.66-5.6-2.06,10.07-10.69,11.82-17.26,17.21a4.41,4.41,0,0,0-.39,2.84c2.54-.09,5.12-.35,7.66-.57.83.48,1.67,1,2.58,1.53-6.39,11.3-18.91,13.27-28.94,18.7-9.15,4.95-18,8.94-24.13,18.53-7.09,11-18.79,16.55-32,19.62-12.43,2.93-24.87,2.89-37.35,3.24-5.82.17-10.38,1.66-13.14,7.18a15.16,15.16,0,0,1-3.85,4.2c-8.89,7.66-15.24,5.3-17.65-6.26-.87-4.12-2.36-8.15-3.55-12-5.82.35-10.68.31-15.32,1.14-1.71.31-3.11,2.67-4.56,4.16-7.49,7.84-16.86,7-22.77-2.27,2.72-1.67,5.39-3.33,8.1-4.95-.08-.48-.17-1-.26-1.49-2.63,0-5.39.44-7.88-.13-1.89-.44-3.51-2.15-5.26-3.33,1.19-1.53,2.15-3.28,3.55-4.47a21.4,21.4,0,0,1,5.47-3.11c6.44-2.67,12.88-4.29,14.45-13.31,1.06-5.91,7.89-7.44,13.71-8.23,3.46-.44,8.63.26,10-1.67,2.93-4.16,3.94-9.72,5.64-14.71.53-1.53.79-3.11,1.8-5.65A34.76,34.76,0,0,0,1676.81,234.68Zm65.69,11.47c.13-1,.26-2,.44-3.9-1.45-1.79-3.2-3.41-4.25-5.43-.4-.83.74-2.4,2.23-3.59a10.35,10.35,0,0,1,4.29-1.88c1.14-.44,2.24-.88,3.38-1.31-.09-.53-.18-1-.31-1.58a63.11,63.11,0,0,1-6.57.35,16.08,16.08,0,0,1-2.85,0,30.55,30.55,0,0,1-4,0c-.26,0-.53,0-1.18-.62a4.18,4.18,0,0,1,0-2.8c2.32-2.93,4.64-5.82,7.36-9.33-11,1.32-17.17,8.32-23.87,16.29-7.05,9-14.1,18.05-22,27.55-6.66,9.46-17.65,16.46-17.56,30.7-2.32,2.23-4.51,3.85-1.27,7.66,1.92,2.23,2,6.35,2.23,9.63.35,4.69,2.32,6.66,6.31,6.26-1.54.53-3,1.1-6,2.15,6.08,3,8.4.39,11.38-3.37,2.45-8.1,7.1-12.7,16.38-11.12,2.67.43,5.65-.88,9.24-1,6.09-.75,12.22-1.23,18.26-2.24,9-1.49,18.66-.87,27-8.14,3.9-4,7.79-8,11.25-11.61-3.94-8.27-10-9.11-17.64-9.24-2.54.57-5.08,1.14-8.59,1.67a26.46,26.46,0,0,1-4.29,1.31,70.66,70.66,0,0,1-7.36.22,32.32,32.32,0,0,1-4.2.17,5.12,5.12,0,0,1-2.67-.26c-.79-.39-1.58-.83-3.33-1.71.61,2.24,1,3.51,1.36,4.82.44,1.53.79,3.07,1.27,5a27.36,27.36,0,0,1-6.88.83c-7.09-9-7.53-13.14-.39-19.14,5.21-4.42,11.52-7.57,18.26-11.56,1.18-1.4,2.36-2.8,3.55-4.29C1741.45,246.37,1741.49,246.37,1742.5,246.15Zm-75.76,49c8.5-7.79,8.76-16.33.57-22.46-4.34-3.2-9.11-2.72-13.53-.31-4.82,2.59-2.19,6.61-1.32,10.16.57,2.19,1.62,4.29,2,6.53C1655.88,297.78,1656.8,298.35,1666.74,295.15Zm-20.49-3.89c1.7,7-6.35,8.19-8.24,13.26,9.72-.13,13.27-8.18,8.19-19.66-3.81,1.54-7.57,3-11.38,4.56.22.65.43,1.31.65,1.92A51.17,51.17,0,0,1,1646.25,291.26Zm156.5-58.64c-.21,1-.48,2-.74,2.93l2.36-.65A2.71,2.71,0,0,0,1802.75,232.62Zm6.53-3.24-2.23-1.71c-.31.57-.62,1.14-.92,1.71A4.5,4.5,0,0,0,1809.28,229.38Zm-9.15,8.41c-.35.17-.75.3-1.1.48C1799.47,238.31,1800,238.31,1800.13,237.79Z" transform="translate(-1616.82 -194.83)" fill="#2a221e"/>
    <path d="M1707.86,234a146.7,146.7,0,0,1-9.15,11.6c-7,8.37-14.06,16.73-21.33,25.36-4.82-1.05-5.56-3.64-3.41-8.24,2.45-5.21,4.24-10.72,6.78-17,2.5-8.5,4.51-16,6.57-23.6,1.49-2.63,3-5.21,4.25-7.49l11.74,3.33a65.58,65.58,0,0,0-2.76,8.19c-.44,2.05-.09,4.29,0,6.43,2.1-1.05,4.25-2.1,6.75-3.41A15,15,0,0,1,1707.86,234Z" transform="translate(-1616.82 -194.83)" fill="#b43338"/>
    <path d="M1871.55,224.78c3.59-1,6.66-1.92,9.68-2.89.39.83.79,1.62,1.18,2.45-6.09,3.73-12.13,7.4-19.49,11.92C1863,228.59,1867.43,227.06,1871.55,224.78Z" transform="translate(-1616.82 -194.83)" fill="#42403f"/>
    <path d="M1874.22,247.07c-.52-1.22-1.66-2.58-1.4-3.59,1-3.72,12.26-9.85,19.18-9.41-6,4.81-10.73,8.67-16.29,12.69Z" transform="translate(-1616.82 -194.83)" fill="#42403f"/>
    <path d="M1826.93,245.36a40.3,40.3,0,0,1-7.27.88,4.68,4.68,0,0,1,.09-2.5A41.4,41.4,0,0,1,1826.93,245.36Z" transform="translate(-1616.82 -194.83)" fill="#ebeae6"/>
    <path d="M1676.46,235.12a21.28,21.28,0,0,1-.17,6.78A21,21,0,0,1,1676.46,235.12Z" transform="translate(-1616.82 -194.83)" fill="#d8dcd6"/>
    <path d="M1814.32,232.71a4.56,4.56,0,0,1-2.28,1.14,17.58,17.58,0,0,1,1.71-3.64A3.88,3.88,0,0,1,1814.32,232.71Z" transform="translate(-1616.82 -194.83)" fill="#d8dcd6"/>
    <path d="M1617.43,296.42A2.57,2.57,0,0,1,1618,298h-1.14A3.35,3.35,0,0,1,1617.43,296.42Z" transform="translate(-1616.82 -194.83)" fill="#ebeae6"/>
    <path d="M1874.35,247.25c-.13-.18.53-.31.83-.27s-.13.44-.13.44A2,2,0,0,1,1874.35,247.25Z" transform="translate(-1616.82 -194.83)" fill="#ebeae6"/>
    <path d="M1816.5,227.28c-.35-.35-.21-.7.49-1.05C1817.29,226.58,1817.12,226.93,1816.5,227.28Z" transform="translate(-1616.82 -194.83)" fill="#d8dcd6"/>
    <path d="M1818.34,231.79c.22.44,0,.74-.78,1C1817.34,232.31,1817.6,232,1818.34,231.79Z" transform="translate(-1616.82 -194.83)" fill="#d8dcd6"/>
    <path d="M1739.87,233.1c-.44,1.27-1.62,2.85-1.18,3.68,1,2,2.76,3.64,3.85,6.22a20.07,20.07,0,0,0-1,3.37l-.56-.13a25.9,25.9,0,0,0-4,4.73c-5.82,3.72-12.08,6.87-17.34,11.25-7.13,6-6.7,10.21,1.36,19.71,12,1.36,12.7,1.05,13.31-3.29-2.49-2.32-4.2-3.94-5.91-5.56a7.07,7.07,0,0,1,2.63.09,17.19,17.19,0,0,0,4.55-.31,36.1,36.1,0,0,1,6.83,0c2.37,1.23,4.21,2,6,2.72.31,5.91-3.06,11.74-.22,17.87a99.86,99.86,0,0,1-10,2.62c-7.71,1.49-15.41,2.81-23.17,4.21-2.84.52-5.82,1.88-8.45,1.4-9.28-1.58-13.92,3-17.43,11.34a35.47,35.47,0,0,1-3.63.35c-4.69,1.05-6.66-.92-7-5.6-.22-3.33-.3-7.41-2.23-9.64-3.24-3.81-1-5.43,2.19-8.06,2.58-1.7,4.9-4.42,5.74-4,7.09,3.38,11.08-3.59,14.84-3.76.88-6.83,1.62-12.7,2.45-19l-5.51-3.81c7-9,14.1-18,22.11-27.37a39,39,0,0,0,4.95-1.31c3.37-1.45,6.66-3.11,10-4.69.22.7.44,1.4,1,2.72a1.74,1.74,0,0,0,1.62.17,9,9,0,0,1,3.81.44A12.78,12.78,0,0,1,1739.87,233.1Z" transform="translate(-1616.82 -194.83)" fill="#ce4248"/>
    <path d="M1748.63,293.1c-3.33-5.78,0-11.65-.26-17.52a29.61,29.61,0,0,1-5.52-2.76,5.25,5.25,0,0,1,4-1.31,48,48,0,0,0,8.93-1.75c6.53-.22,12.57.56,16.51,8.88A161.6,161.6,0,0,1,1760,290.42C1755.55,291.48,1752.09,292.31,1748.63,293.1Z" transform="translate(-1616.82 -194.83)" fill="#b43338"/>
    <path d="M1695.51,259.6a39.92,39.92,0,0,1,6,3.59c-.84,6.35-1.58,12.21-2.46,19.05-3.76.17-7.75,7.13-14.84,3.76-.83-.39-3.2,2.37-5.34,3.77C1677.42,276.28,1688.46,269.27,1695.51,259.6Z" transform="translate(-1616.82 -194.83)" fill="#b43338"/>
    <path d="M1666.21,295.42c-9.37,3-10.33,2.36-11.78-6.31-.35-2.23-1.44-4.33-2-6.52-.87-3.55-3.5-7.58,1.32-10.16,4.42-2.37,9.19-2.89,13.53.3C1675.5,278.82,1675.24,287.36,1666.21,295.42Zm-5.69-20.59c-1.31.53-3.5.84-3.76,1.67-.84,2.85-1.71,6-1.1,8.76.4,1.75,3.24,3.68,5.3,4.11,1.53.31,4.2-1.18,5.25-2.67C1669.1,282.59,1667,277.29,1660.52,274.83Z" transform="translate(-1616.82 -194.83)" fill="#d8dcd6"/>
    <path d="M1748.15,293.45c3.89-1.14,7.35-2,11.34-2.89-6.74,7-16.42,6.35-25.44,7.83-6,1-12.18,1.49-18.66,2.06,7.31-1.57,15.07-2.89,22.77-4.38A94.65,94.65,0,0,0,1748.15,293.45Z" transform="translate(-1616.82 -194.83)" fill="#d8dcd6"/>
    <path d="M1733.3,225.66c-3.63,1.92-6.92,3.54-10.29,5a20.12,20.12,0,0,1-4.55,1c5.38-7.36,11.51-14.41,22.55-15.72C1738.25,219.48,1735.93,222.37,1733.3,225.66Z" transform="translate(-1616.82 -194.83)" fill="#b43338"/>
    <path d="M1645.85,290.86a87,87,0,0,0-10.42.53c-.22-.66-.44-1.32-.66-1.93,3.81-1.53,7.62-3.06,11.39-4.55,5.12,11.43,1.57,19.53-8.19,19.66C1639.9,299.45,1648,298.26,1645.85,290.86Z" transform="translate(-1616.82 -194.83)" fill="#d8dcd6"/>
    <path d="M1728,272.82c2.1,1.88,3.85,3.5,6.31,5.82-.62,4.34-1.36,4.69-12.84,3.55a23.35,23.35,0,0,1,5.43-1.57c-.48-1.89-.87-3.42-1.27-4.95-.35-1.32-.74-2.59-1.35-4.82C1726,271.73,1726.78,272.16,1728,272.82Z" transform="translate(-1616.82 -194.83)" fill="#b43338"/>
    <path d="M1687,222.37c-1.71,7.23-3.73,14.8-6,22.73C1679.18,237,1682.11,229.6,1687,222.37Z" transform="translate(-1616.82 -194.83)" fill="#df797b"/>
    <path d="M1685.18,313.72a10,10,0,0,1,3.54-.44c-1.44,3.29-3.76,5.91-9.89,2.89A66.21,66.21,0,0,0,1685.18,313.72Z" transform="translate(-1616.82 -194.83)" fill="#df797b"/>
    <path d="M1755.29,269.58a27.55,27.55,0,0,1-7.89,1.93A28.58,28.58,0,0,1,1755.29,269.58Z" transform="translate(-1616.82 -194.83)" fill="#df797b"/>
    <path d="M1742.59,228.94c1.88-.17,3.81-.35,5.69-.48.09.53.17,1,.31,1.58a11.09,11.09,0,0,1-4.08.92A10.27,10.27,0,0,1,1742.59,228.94Z" transform="translate(-1616.82 -194.83)" fill="#df797b"/>
    <path d="M1803.19,232.36a5.1,5.1,0,0,1,1.23,2.49l-2.37.66A11.81,11.81,0,0,1,1803.19,232.36Z" transform="translate(-1616.82 -194.83)" fill="#42403f"/>
    <path d="M1742.15,228.85a7.67,7.67,0,0,1,1.88,1.89,10.54,10.54,0,0,1-3.63,2.41,7.8,7.8,0,0,1-.44-3.68C1740.53,228.9,1741.1,228.85,1742.15,228.85Z" transform="translate(-1616.82 -194.83)" fill="#b43338"/>
    <path d="M1808.93,229.73a7.13,7.13,0,0,1-2.85-.31l.92-1.7A5,5,0,0,1,1808.93,229.73Z" transform="translate(-1616.82 -194.83)" fill="#42403f"/>
    <path d="M1737.42,250.84a14.37,14.37,0,0,1,3.5-4.56A14,14,0,0,1,1737.42,250.84Z" transform="translate(-1616.82 -194.83)" fill="#df797b"/>
    <path d="M1735,272.73a8.08,8.08,0,0,1-3.5.53A7.9,7.9,0,0,1,1735,272.73Z" transform="translate(-1616.82 -194.83)" fill="#b43338"/>
    <path d="M1742,246.28a3.26,3.26,0,0,1,.52-2.76A3.63,3.63,0,0,1,1742,246.28Z" transform="translate(-1616.82 -194.83)" fill="#df797b"/>
    <path d="M1800.3,238.05a2,2,0,0,1-1.31.22A2,2,0,0,1,1800.3,238.05Z" transform="translate(-1616.82 -194.83)" fill="#42403f"/>
    <path d="M1735.23,228.81c-.09.22-.53.35-1,.18C1734.35,228.72,1734.62,228.72,1735.23,228.81Z" transform="translate(-1616.82 -194.83)" fill="#b43338"/>
    <path d="M1661.13,274.83c5.83,2.46,8,7.8,5,11.92-1.05,1.48-3.68,3-5.25,2.67-2.06-.44-4.91-2.37-5.3-4.12-.62-2.71.26-5.95,1.09-8.76C1657,275.67,1659.21,275.36,1661.13,274.83Z" transform="translate(-1616.82 -194.83)" fill="#2a221e"/>
  </g>
</svg>
