<?xml version="1.0" encoding="utf-8"?>
<!-- Generator: Adobe Illustrator 26.0.1, SVG Export Plug-In . SVG Version: 6.00 Build 0)  -->
<svg version="1.1" id="Layer_1" xmlns="http://www.w3.org/2000/svg" xmlns:xlink="http://www.w3.org/1999/xlink" x="0px" y="0px"
	 viewBox="0 0 200.2 191.5" style="enable-background:new 0 0 200.2 191.5;" xml:space="preserve">
<style type="text/css">
	.st0{fill:#FFFFFE;}
	.st1{fill:#74584F;}
	.st2{fill:#F9485D;}
	.st3{display:none;fill:#FFFFFE;}
</style>
<g>
	<path class="st0" d="M132.1,191.5c-43.7,0-87.2,0-130.7,0c-1.2,0-1.4-0.3-1.4-1.4C0,127.2,0,64.3,0,1.4C0,0.3,0.3,0,1.4,0
		C67.2,0,133,0,198.8,0c1.2,0,1.4,0.3,1.4,1.4c0,62.9,0,125.8,0,188.7c0,1.2-0.3,1.4-1.4,1.4C176.7,191.5,154.5,191.5,132.1,191.5z"
		/>
	<path class="st1" d="M106.4,62.4c1.3,0.4,1.9,1.4,2.5,2.2c1.6,2.3,4.2,3.5,6,5.5c0.6,0.7,1.2,1.2,1.9,1.7
		c4.5,3.4,9.1,6.7,12.3,11.5c2.1,3.2,4.1,6.5,5.1,10.3c0.2,0.7,0.4,1.1,1.2,0.6c0.9-0.5,1.9-0.2,2.8,0.1c1.7,0.5,2.5,0,2.6-1.7
		c0.1-1.3,0.2-2.7,0.1-4c-0.2-2.7,0.8-4.9,2.8-6.5c2.4-1.8,5.1-2.2,7.9-1.2c1.4,0.5,2.2,0.2,3.2-0.6c1.4-1.1,2.6-2.6,4.5-2.7
		c2.8-0.2,4.9,1.5,7.2,2.8c0.5,0.3,0.7,1.2,0.5,1.9c-0.2,0.6-0.9,1-1.5,0.9c-2.9-0.4-4.7,1.4-6.5,3.2c-2.3,2.2-3.2,5-3.5,8.1
		c-0.3,3.6,0.2,7.2-0.3,10.8c-0.5,4.2-2.5,7.8-4.9,11.2c-2.1,3-4.4,5.9-7.3,8.2c-3.8,3.1-8.1,5.6-12.8,7.1c-2.7,0.9-5.4,1.6-8.3,1.3
		c-0.8-0.1-1.3,0.1-1.7,1c-0.7,2.1-1.5,4.3-3.6,5.6c-0.5,0.3-0.5,1-0.5,1.6c0,1.9-0.1,3.9,0,5.8c0.2,3.8,0,7.5-0.7,11.2
		c0,0.2-0.1,0.5-0.1,0.8c-0.4,4.1-1.9,5.5-6,5.8c-0.9,0.1-1.8,0.6-2.8,0.3c-1-0.3-1.3-0.9-1.4-1.8c-0.1-1.1,0.8-0.9,1.4-1
		c1.4-0.4,2.9-0.2,4.4-0.6c1.1-0.3,1.4-0.9,1.5-1.6c0.4-3.4,0.8-6.8,0.8-10.2c0-3,0-6.1,0.1-9.1c0-0.6,0-1.2-0.5-1.7
		c-1.5-1.9-2.5-4-2.4-6.4c0-0.8-0.5-0.9-1.1-1c-3.3-0.6-6.3-2.1-9.3-3.5c-2.4-1.1-4.3-2.8-6.1-4.7c-0.1-0.1-0.2-0.2-0.2-0.4
		c-0.3-2.4-2.1-2.2-3.9-2.3c-2.9-0.2-5.9,0.2-8.8-0.4c-4.3-0.8-6.3-3.4-6.2-7.7c0-2,0.2-3.9,0.4-5.9c0.1-1.1-0.3-1.5-1.4-1.5
		c-2.7,0.2-5.1,0.9-7.4,2.5c-3.9,2.7-8.1,4.6-12.9,5c-1.2,0.1-2.5,0.3-3.7,0.2c-0.7-0.1-1.1,0.4-1.4,0.8c-2.8,3.2-6.3,3.9-10.3,3.6
		c-2.7-0.2-5.5-0.3-8.1-1.1c-1.7-0.6-3.5-1-5-2c-2.3-1.6-2.9-4.1-3-6.9c-0.1-5.1,0.8-10.2-0.2-15.3c-0.4-1.9,1.3-3.4,3.6-3.6
		c3.7-0.4,7.3-0.8,11-1.1c1.8-0.2,3.4-1,5.2-1.2c2.4-0.2,4.4,0.8,6.7,0.7c2.3-0.1,4.4-0.2,6.6-1.2c2.4-1.1,4.9-1.7,7.4-2.6
		c1.1-0.4,2.2-0.9,3.2-1.5c2.6-1.4,5.4-2.1,8-3.4c1.9-0.9,3.7-1.8,5.6-2.4c1-0.3,1.9-0.5,2.8,0c0.7,0.4,1.2,0.1,1.8-0.6
		c3.1-3.2,4-7.3,4.4-11.5c0-0.5,0.4-1.1-0.3-1.4s-1.4-0.5-1.9,0c-2.9,2.5-6.6,2.9-10.1,3.8c-2,0.5-3.2-0.2-3.6-1.9
		c-0.2-0.7-0.1-1.3,0.5-1.8c0.7-0.6,1.3-1.4,1.9-2c1-1,0.6-1.6-0.5-2c-2.5-1.1-5.3-1.8-7.1-4C66.1,53.4,65,52,64,50.5
		c-0.8-1.2,0.1-2.7,1.6-2.5c2.2,0.3,4.5,0.3,6.8,0.4c2.3,0.1,4.4-0.4,6.5-0.9c0.7-0.2,1.3-0.4,2-0.1c0.9,0.4,1.4,0,1.8-0.7
		c0.9-1.8,2.5-2.9,4.1-4.1c1-0.7,1.1-1.3,0.7-2.3c-0.5-1-0.8-2.1-0.9-3.2c-0.4-3.4,1.7-5.4,4-7.2c1.6-1.2,4.7,0,6.1,1.6
		c1.2,1.4,1.4,2.6,0.5,4c-0.7,1.1-1.9,0.9-2.8,0.8c-1-0.1-1-1.1-0.7-1.9c0.1-0.4,0.8-1.1-0.1-1.5c-0.7-0.3-1.4-0.5-2.2,0
		c-1.4,1-2.3,2.7-2,4.4c0.4,2.1,2,4.1,3.9,4.3c2.4,0.2,4.5,1.1,6.4,2.6c1.1,0.8,1.4,0.6,1.6-0.7c0.4-1.9,1.1-3.5,2.1-5.2
		c1.4-2.5,3.6-4.2,5.5-6.2c2.2-2.4,5.1-3.3,8.4-2.8c2.5,0.4,5.5,4.2,5.2,6.7c-0.3,2.4-3.9,5-6.2,4.5c-1.2-0.3-1.4-1.2-1.3-2.2
		c0.1-0.9,0.3-1.8,1.6-1.3c0.5,0.2,1.3,0.1,1.8-0.2c0.9-0.5,1.2-1.3,0.5-2.3c-1.6-2.3-4.7-3.1-7.8-0.6c-3,2.5-5.8,5.2-6.7,9.2
		c-0.4,1.9-1.7,3.7-0.7,5.8c0.3,0.6,0.7,1.2,0.9,1.8c0.8,2.2,0.7,4.2-0.6,6.2c-2,3.2-4.3,5.8-8.3,6.7c-0.2,0.3-0.4,0.4-0.8,0.5
		c-0.6,0.1-1.1,0.1-1.6,0.1c-0.8,0-1.2,0.4-1.3,1.3c0.1,2.7-0.7,5.2-1.4,7.7c-0.2,0.9-1,1.6-1.6,2.4c-1,1-2,1.8-2.5,3.1
		c-1.8,1.8-3.8,3.3-4.5,5.7c-0.2,0.7-1,1.4-0.1,2c0.8,0.5,1.8,0.6,2.6,0c1.5-1,3-2.1,4.1-3.5c0.8-1,1.7-1.3,2.9-0.9
		c1.1,0.3,1.5,1.1,1.5,2.2c0,0.7,0.3,1.4,0.2,2.3c-0.3,1.8,0.4,3.1,1.4,4.4c0.5,0.6,1,0.5,1.8,0.3c3.8-0.3,5.5-2.1,5.8-5.9
		c0.1-1.1,0-2.2-0.2-3.2c-0.3-1.3,0.1-2.2,1.3-2.9c0.8-0.4,1.6-0.8,2.3-1.2c1-0.5,1.9-0.1,2.7,0.5c0.6,0.5,1.1,1,1.8,1.1
		c2.5,0.7,4.2,2.6,6.1,4.1c1.4,1.1,2.5,2.4,3.6,3.9c0.4,1.3,1.1,2.3,1.6,3.5c0.5,0.9,0.8,1.7,1.2,2.5c0.8,1.7,0.5,3.4,0,5.2
		c-0.7,1.1-1.4,2-2,3.1c-0.4,0.3-0.6,0.6-0.8,0.9c-1,1.6-2.3,2.4-4.2,2.4c-0.9,0-1.7,0.2-2.3,1c-0.6,0.7-1.3,0.3-2,0
		c-0.6-0.3-1.1-0.6-1.8-0.5c-3.4,0.2-6.8-0.6-10.3-0.7c-0.9,0.1-1.2,0.6-1.1,1.4c0.1,0.9,0.7,1.1,1.5,1c0.8,0,1.5,0.1,2.1,0.3
		c4.8,2,9.8,1.9,14.9,1.7c4.2-0.2,8-1.5,11.8-3c1.8-0.7,3.1-3,3.1-5c-0.1-3.2-1.1-6.2-2-9.3c-0.9-3-3.2-5-4.1-7.9
		c-0.6-1.6-2.8-2.5-4.2-3.8c-2.8-2.6-6-4.8-8.8-7.5c-0.7-0.9-1.2-1.8-2.3-2.3c-1.9-1.2-3.2-2.9-4.5-4.4
		C104.3,64.6,104.8,62.8,106.4,62.4z"/>
	<path class="st2" d="M98.9,104.5c3.8,0,7.5,1,11.2,0.7c0.9-0.1,1.2,1.3,2.3,0.8c0.1,0,0.3,0.1,0.4,0.2c0.6-1.9,2.3-1.2,3.5-1.5
		c1.5-0.3,2.6-0.9,2.9-2.6c0.1-0.5,0.6-0.3,1-0.6c1.8-0.4,1.8-0.5,1.8-2.4c1.1-2.9,0.5-5.4-1-7.9c0.6-2.1,0.4-2.5-1.5-3.3
		c-2-2.9-4.8-4.8-7.4-6.9c-1.2-0.9-3-0.8-4.1-2c-0.5-0.6-1.1-0.7-1.8-0.7c-2.4-0.1-4.3,2-4,4.3c0.4,2.8-0.2,5.4-2,7.6
		c-1.1,1.3-2.6,1.2-4.2,1.2c-0.9-1.7-2.4-2.9-3.4-4.6c-0.1-1-0.2-1.8-0.3-2.7c0-0.8-0.1-1.6-1.1-1.8c-0.9-0.2-1.8-0.3-2.4,0.7
		c-1.1,1.7-2.9,2.8-4.5,4c-0.9,0.6-2.9,0-3.4-0.8c-0.2-0.3-0.3-0.6-0.1-1c1.3-2.7,2.8-5.2,5.4-7c2-0.4,2-0.4,2-2.6
		c2.5-3,2.8-6.5,3.2-10.1c1-0.5,2.3-0.4,3-1.7c0.3-0.1,0.6-0.2,1-0.3c2.1,1.4,3.9,1,5.8-0.2c0.8-0.5,1.8-0.8,2.7-1.3
		c1-0.5,1.9-0.4,2.7,0.6c-1.2,0.6-1.7,2.2-0.8,3.2c0.7,0.8,1.2,1.7,2.2,2.3c1,0.5,1.3,1.9,2.5,2.4c0.1,2,0.1,2,1.8,1.9
		c3.9,3.3,7.7,6.6,11.6,9.6c2.1,1.6,2.3,3.9,3.9,5.5c1.2,1.2,1.4,2.9,2.1,4.2c1.3,2.4,1.6,5,2,7.5c0.6,3.1-0.5,7.3-4.6,7.9
		c-0.9,0.1-1.6,0.9-2.5,1.1c-4.6,1.4-9.2,1.6-14,1.5c-3.2,0-6.3-0.5-9.3-1.8c-0.5-0.2-1-0.2-1.6-0.4C99.4,106.5,99,105.5,98.9,104.5
		z"/>
	<path class="st1" d="M138.6,161.9c-0.5-5.9-0.5-11.6-0.5-17.3c0-1.5,0.2-3.1,0.3-4.6c0.1-0.8,0.5-1.5,1.5-1.5c1.1,0,1,0.9,1,1.6
		c0,5.3-0.1,10.5-0.1,15.8c0,3.2,0.4,6.4,0.4,9.5c0,2.5,0.2,5,1,7.4c0.3,1-0.2,1.6-1.1,1.8c-1.1,0.2-2.2,0.6-3.2-0.3
		c-0.8-0.7-0.9-1.5,0-2c1.1-0.6,1-1.3,0.9-2.3C138.7,167.3,138.7,164.6,138.6,161.9z"/>
	<path class="st1" d="M140.4,131c0.5-0.8,0.3-2.3,1.6-2c1.3,0.3,1.5,1.7,1.2,2.8c-0.3,1.3-0.2,2.6-1.1,3.8c-0.8,1.1-1.5,2-2.9,1.8
		c-1.3-0.2-2.6-1.8-2.7-3.2c-0.1-0.5,0-1,0-1.6c-0.1-0.8,0.3-1.4,0.9-1.7c0.5-0.3,0.9,0.4,1.2,0.7C139.4,132.5,140,132.6,140.4,131z
		"/>
	<path id="steam_00000102516641609258060650000005614426595323941507_" class="st2" d="M35.6,54.3c-2.2-2.2-2.2-3.9-0.1-6.2
		c1-1.2,1.8-2.4,1.4-4.2c-0.3-1.1-0.1-2.4,0.1-3.6c0.1-0.8,0.8-1.2,1.6-0.4c1.2,1.1,1.9,6.4,0.9,7.6c-0.7,0.8-1.4,1.6-2.1,2.4
		c-0.8,0.8-0.9,1.7,0,2.7C36.4,52.8,35.9,53.4,35.6,54.3z"/>
	<path id="steam_00000103235206119308750220000001541200872458377641_" class="st2" d="M29.1,71.1c-1.4-1.8-1.8-3.6-0.2-5.6
		c0.8-0.9,0.9-2.1,0.5-3.4c-0.3-0.9-0.6-1.8-0.4-2.9c0.1-0.7,0.3-1.4,1-1.6c0.9-0.2,1.3,0.5,1.5,1.1c0.9,3.1,1.4,6.2-0.7,9
		c-0.5,0.6-1,1.2-0.4,2.2C30.2,70.6,29.7,70.8,29.1,71.1z"/>
	<path id="steam" class="st2" d="M46.9,62.8c-0.6,1.5-1.8,0.9-2.7,0.9c-0.4,0-0.4-0.5-0.2-0.7c1.7-1.4,1-3.3,1.2-5.1
		c0.1-1.1,0.1-2.3-0.2-3.4c-0.2-0.9,0.1-1.6,0.9-1.9c1-0.4,1.3,0.5,1.5,1.1c0.7,1.6,0.6,3.4,0.5,5C47.8,60.1,47.6,61.5,46.9,62.8z"
		/>
	<path class="st1" d="M35.5,54.5c0.2-1-0.1-2.3,1.6-1.9c0.4,0.2,0.8,0.4,1.1,0.6c1,0.7,1,1.8,0.2,2.5c-0.6,0.6-1.6,0.4-2.3-0.4
		C36,55.1,35.7,54.8,35.5,54.5z"/>
	<path class="st1" d="M29,71.2c0.3-0.7,0.8-0.8,1.3-1.2c0.1,0,0.2,0.1,0.2,0.1c0,0.1,0.1,0.1,0.1,0.3c0,0.1,0.1,0.1,0.2,0.2
		c0.4,0.7,1.6,1,0.6,2c-0.4,0.4-0.8,0.7-1.4,0.4C29.4,72.8,28.8,72.3,29,71.2z"/>
	<path class="st1" d="M148.4,54.1c0.6,0.6,0.8,1.1,0,1.6c-0.5,0.3-1,0.5-1.5-0.1c-0.4-0.5-0.5-1-0.1-1.6
		C147.2,53.4,147.7,53.3,148.4,54.1z"/>
	<path class="st2" d="M43.6,67.1c0,0.6,0.9,1.5-0.5,1.5c-0.6,0-1.3,0.2-1.3-0.4c0-0.5,0.2-1.5,1.3-1C43.2,67.2,43.4,67.1,43.6,67.1z
		"/>
	<path class="st1" d="M148.8,35.5c0.1-0.5,0.3-0.6,0.6-0.3c0.2,0.2,0.2,0.5,0,0.7C149.2,36.1,148.9,36,148.8,35.5z"/>
	<path class="st2" d="M30.6,70.5c0,0-0.1,0-0.1-0.2C30.6,70.3,30.6,70.4,30.6,70.5z"/>
	<path class="st2" d="M30.9,70.8C30.9,70.8,30.8,70.8,30.9,70.8C30.8,70.7,30.9,70.8,30.9,70.8z"/>
	<path class="st2" d="M98,119.7c1.5-1.8,2.7-3.8,3.1-6.1c0.3-1.4,2.5-2.3,4.2-1.5c2.3,1,4.7,0.7,7.1,0.9c1.9,0.1,3.9-0.2,5.9,0.6
		c0.2,0.5-0.2,1,0.3,1.5c0.5-0.3,0.3-0.8,0.3-1.3c1.5-1.6,3.3-1.7,5.2-1.8c0.3,0,0.8,0.2,0.9,0.1c1.6-2,4.2-1.9,6.1-3.2
		c3.1-2.2,4-5.4,4.3-9c1.5,0.4,2-0.5,2.3-1.8c2.5,0.1,4.8-0.1,6.4-2.4c1.2,1.1,1.5,1.1,2.5-0.1c0.3-0.4,0.5-1,0.9-1.5
		c1.7-0.4,2-1.7,2.6-2.9c0.5-1,0.8-2.2,1.7-3.1c0.3-0.3,0.6-0.6,1.1-0.4c0.4,0.2,0.3,0.6,0.3,0.9c0,0.9,0,1.9-0.7,2.7
		c-0.2,0.3-0.3,0.6-0.2,0.9c0.6,3.1,0,6.3,0.1,9.5c0.1,2.7,0.1,5.5-1.3,8c-1.2,0.7-1.7,1.7-1.7,3.1c-0.5,1.3-1.1,2.4-2.2,3.1
		c-1.2,0.8-1.7,2.1-2.5,3.3c-1.3,1.9-3,3.4-5,4.6c-1.9,1.1-3.4,3.1-5.6,3.6c-2.2,0.6-4,2.2-6.4,2.2c-2.4-0.6-4.7-0.6-7.1,0.3
		c-1.4-0.6-2.7-0.3-4.1-0.2c-0.7,0.1-1.5,0.2-2.1-0.2c-0.9-0.6-1.9-0.1-2.8-0.2c-2.4-0.3-4.6-1.4-6.7-2.4c-1.3-0.6-2.5-1.4-4-1.8
		c0.1-1.1-0.2-1.9-1.2-2.4C98.7,122.1,98.3,120.9,98,119.7z"/>
	<path class="st2" d="M53,107.6c0.1-2.8,1.3-5.3,1.1-8.1c-0.1-1.8-0.1-3.5-1.6-4.9c-1.2-1.2-0.5-3.1-0.8-4.6
		c-0.1-0.4,0.5-0.4,0.9-0.4c2.2-0.1,4.1-1.3,6.1-1.9c0.8-0.3,1.6-0.7,2.4-0.9c3.8-0.6,6.9-2.8,10.2-4.3c2.6-1.2,5.3-2.2,8.1-2.9
		c0.3-0.1,0.5,0,0.7,0.2c-1.9,2.3-3,4.9-2.6,7.9c0.1,1,1.8,2.4,3.1,2.6c2,0.2,2.1,0.5,1.5,2.4c-0.8,0.4-1.4,0.8-1.8,1.6
		c-1.3,1-2.8,0.3-4.2,0.7c-1.4,0.4-1.8,1.4-2,2.4c-0.2,1-0.2,2.4,0.9,3c0.5,0.3,0.8,0.7,0.7,1.2c-0.2,0.6-0.8,0.7-1.4,0.7
		c-3-0.1-5.7,0.7-8.4,2.2c-1.4,0.8-2.2,2.3-3.8,2.9c-2.2,0.8-4.4,1.6-6.7,2.4C54.5,109.1,53.9,108.3,53,107.6z"/>
	<path class="st0" d="M29.8,107.8c1.5,0,2.6-0.8,4-1c0.6-0.1,1.2-0.6,1.2-1.2c0-0.7-0.5-1.4-1.1-1.8c-1.8-1.1-3.6-2.4-5.5-3.4
		c-0.6-0.3-1.3-0.6-2-0.8c-1.2-0.4-1.3-1.4-0.9-2.2c0.3-0.8,1.1-0.8,1.9-0.4c2.5,1.2,5.3,1.1,8,1.4c2.1,0.2,4.1,1.1,6.2,0.8
		c2.2-0.3,4.4-0.6,6.5-1.6c1.8-0.8,2.5-0.4,2.6,1.6c0.3,3.9-0.8,7.3-2.9,10.6c-1.5,2.4-3,4.6-6.2,4.9c-1.3,0.1-2.6-0.1-3.9-0.1
		c-3.2-0.1-6.3-0.7-9.2-1.9c-1.7-0.7-2.6-1.9-3.2-3.5c-0.3-0.7-0.1-1.3,0.4-1.9c0.5-0.6,0.9-0.1,1.4,0
		C28,107.6,28.8,107.9,29.8,107.8z"/>
	<path class="st0" d="M94.4,104.5c-0.2,2,0.4,3.7,2,4.7c2.3,1.5,1.4,3.4,1.2,5.4c0,0.1-0.2,0.3-0.2,0.4c-0.6,2.5-2.2,3.2-4.6,3.1
		c-2.2-0.1-4.5-0.1-6.8,0.2c-1.8,0.2-3.8-0.2-5.6-0.9c-2-0.8-3.1-2.8-2.5-5.3c0.5-1.9,0.4-3.9,0.7-5.8c0.2-1.2,0.8-2.1,1.2-3.1
		c0.2-0.6,0.7-0.5,1.2-0.5c2.1,0,4.2,0,6.3,0.4c1.9,0.4,3.8,0.2,5.7,0.1C93.7,103.2,94.4,103.3,94.4,104.5z"/>
	<path class="st2" d="M117.4,99.7c-1.2,1.1-2.6,1.5-4.1,1.6c-3.1,0.2-6.2,0.5-9.3,0.1c-1.8-0.2-3.6-0.9-5.5-0.8
		c-0.4,0-0.9-0.7-0.8-1.3c0-0.4-0.2-0.5-0.6-0.7c-1.1-2.1-3.2-2.6-5.1-3.2c-1.8-0.5-3.7-0.6-5.6-0.9c-1-0.1-1.2-0.8-0.9-1.6
		c0.2-0.8,0.3-1.6-0.1-2.4c-0.4-1,0.7-1.2,1.2-1.6c1.2-1.1,1.7-0.9,2.6,0.4c0.6,0.9,1.1,1.8,1.5,2.8c0.6,1.4,2,1.9,3.3,2.3
		c2.1,0.7,4.2,0.8,6.3-0.6c0.4,0.2,0.5,0.6,0.6,0.9c0.2,0.4,0.1,1.1,0.8,0.9c0.5-0.1,0.5-0.7,0.4-1.2c0-0.4-0.2-0.8-0.1-1.3
		c0.7-0.8,1.5-1.4,1.9-2.5c0.3-1.1,1.3-1.3,2.1-0.9c2.1,0.9,4.4,1.4,6.5,2.2c0.9,0.4,1.9-0.2,2.7,0.2c1.6,0.9,3,2.1,3.9,3.9
		C118.2,97.1,117.4,98.1,117.4,99.7z"/>
	<path class="st0" d="M85,48.9c0.9-1.5,2-2.7,3.2-3.7c0.7-0.5,1.5-1,2.4-0.2c0.2,0.2,0.7,0.3,0.9,0.2c1.3-0.9,2.7,0.2,4.1-0.1
		C96,45,96.8,45.3,97,46c0.2,0.7-0.4,1.1-0.8,1.5c-1.4,1-3,1.3-4.6,1.6c-1.7,0.2-3.2,0.9-3.9,2.6c-0.9,2.1,0.4,4.6,2.8,5.7
		c1.8,0.7,4.5-0.5,5.3-2.3c0.6-1.4,1.3-2.7,0-4.1c-0.3-0.3,0-0.8,0.2-1.1c0.7-0.8,1.8-1.1,2.5-1.9c0.4-0.4,0.8,0.2,1,0.4
		c1.1,1.1,1.7,2.6,2.2,4c0.3,0.9,0.2,1.8-0.3,2.7c-1.5,2.5-3.5,4.4-6.2,5.5c-2.8,1.1-7.9-0.7-9.7-3C83.5,54.8,83.6,52,85,48.9z"/>
	<path class="st0" d="M48.6,94.1c-0.6,1.4-2,1.5-3.1,1.8c-2.4,0.7-5,0.6-7.5,0.2c-1.8-0.2-3.6-0.3-5.4-0.6c-2.2-0.3-4.6-0.7-6.4-2.4
		c-0.4-0.4-0.8-0.6-0.6-1.3c0.2-0.6,0.7-0.7,1.2-0.8c1-0.1,2.1-0.2,3.1-0.1c3.2,0.2,6.4-0.6,9.5-0.8c2.1-0.1,4.2-0.2,6.3-0.1
		C47.6,90.3,48.4,91.6,48.6,94.1z"/>
	<path class="st0" d="M71,51.3c3.1,0,6-0.1,8.8-0.9c1.1-0.3,1.1,0.3,1,1.1c-0.1,0.4-0.2,0.8-0.2,1.2c0,1,0.5,2.4-0.5,2.8
		c-1.3,0.6-2.9,0.8-4.3,0.2c-1.9-0.7-3.6-1.7-5.2-2.8c-0.5-0.3-0.7-0.8-0.6-1.3C70.1,51.2,70.5,51.3,71,51.3z"/>
	<path class="st0" d="M114.9,87.3c0.4,0.4,1.1,0.7,0.7,1.3c-0.3,0.5-0.9,0.4-1.4,0.2c-0.7-0.2-1.4-0.3-2-0.7
		c-1.7-1.2-3.9-0.7-5.7-1.6c-1-0.5-1.5-1.8-0.8-3.2c0.5-1.1,1.4-0.6,2.2-0.3C110.5,83.9,112.6,85.6,114.9,87.3z"/>
	<path class="st0" d="M80.7,99.6c-1.2,0.4-2-0.5-2.9-0.7c-0.4-0.1-0.4-0.7-0.3-1.1c0.1-0.5,0.4-0.7,0.9-0.7c1.5,0.2,3.1,0.2,4.6,0.8
		c1.5,0.6,3.3,1.4,4.9-0.1c0.5-0.5,1-0.3,1.6,0.1c0.7,0.5,1.7,0.2,2.5,0.7c0.4,0.2,1,0.4,0.9,0.9c-0.1,0.5-0.6,0.6-1.2,0.8
		c-1.7,0.5-3.3-0.2-4.9-0.4C84.8,99.7,82.8,99.9,80.7,99.6z"/>
	<path class="st0" d="M117.5,133.7c-0.2,1-0.4,1.8-0.6,2.6c-0.2,0.5-0.5,0.9-1.1,1c-0.6,0.1-1-0.2-1.4-0.7c-0.7-0.9-0.7-1.9-0.6-3
		c0-0.7,0.5-0.9,1.1-0.8C115.8,133.1,116.9,132.4,117.5,133.7z"/>
	<path class="st0" d="M97.9,119.6c1.1,1.2,2,2.7,3.4,3.8c0.5,0.4,0.6,1.1-0.2,1.6c-1.6-0.4-3-1.2-4.1-2.4
		C96.1,121.6,95.5,121.3,97.9,119.6z"/>
	<path class="st0" d="M147.6,93.9c0.4,1.6-0.8,2.4-1.8,3c-0.8,0.5-1.4,0-1.5-1.2c0.3-0.9,0.3-1.7,0.4-2.5c0-0.4-0.2-1,0.4-1.1
		c0.5-0.1,0.6,0.5,0.9,0.7C146.4,93.3,146.6,94,147.6,93.9z"/>
	<path class="st0" d="M120.8,130.1c0-0.9,0.5-1.1,1.3-1.1c1.3,0,2.6,0.1,3.8-0.2c0.9-0.3,1.2,0.4,1.8,1
		C125.5,130.7,123.2,130.6,120.8,130.1z"/>
	<path class="st0" d="M80.7,60.2c0.8-0.3,1.5-1.1,2.4-0.4c0.8,0.6,0.7,1.1-0.1,1.5c-0.9,0.4-1.8,0.8-2.7,1.1
		c-0.5,0.2-1.2,0.2-1.5-0.5c-0.3-0.7,0.4-0.9,0.9-1.2C79.9,60.6,80.2,60.4,80.7,60.2z"/>
	<path class="st0" d="M92.5,86.7c1.4,1.1,2.5,2.6,3.4,4.4c-0.7,0.7-1.2,0.6-1.8-0.1C93.2,89.7,92.6,88.3,92.5,86.7z"/>
	<path class="st0" d="M137.8,98c0.1,0.4,0.1,0.8,0.1,1.1c-0.3,1.6-0.7,1.7-2.2,0.8c-0.1-0.1-0.1-0.1-0.1-0.2
		c-0.2-0.9-1.1-2.1-0.3-2.7C135.7,96.5,136.9,97.5,137.8,98z"/>
	<path class="st0" d="M26.8,104.7c-0.6-0.3-1.4-0.3-1.2-1.2c0.2-0.9,0.9-0.7,1.6-0.6c0.9,0.1,1.7,0.4,2.5,0.7
		c0.3,0.1,0.6,0.4,0.5,0.8c-0.1,0.4-0.4,0.5-0.8,0.5C28.5,104.9,27.7,104.8,26.8,104.7z"/>
	<path class="st0" d="M144.4,87c-0.2-1.2,0.9-1.6,1.4-2.4c0.1-0.2,0.4-0.2,0.5,0c0.2,0.2,0.1,0.4,0,0.6c-0.7,1.2-0.7,2.6-1.1,3.8
		c-0.1,0.2,0,0.6-0.3,0.6c-0.4,0.1-0.4-0.3-0.6-0.6C143.9,88.4,144.2,87.8,144.4,87z"/>
	<path class="st0" d="M53,107.5c1,0.4,2.4,0.4,2.2,2.1c-0.6,0.6-1.5,0.3-2.2,0.6c-0.4,0.2-0.8-0.2-1-0.6c-0.2-0.4-0.4-0.9,0-1.3
		C52.2,108.1,52.6,107.8,53,107.5z"/>
	<path class="st0" d="M98.8,104.4c0.7,0.9,1.3,1.8,0.8,3.1c-1.1,0.1-2,0.1-2.1-1.4C97.5,105,97.7,104.5,98.8,104.4z"/>
	<path class="st0" d="M101.9,93c0.2,0.1,0.2,0.3,0.3,0.4c0.3,1.1,0.7,2.5-0.6,2.8c-1.2,0.2-0.7-1.4-1.1-2.3
		C100.9,93.4,101.3,93,101.9,93z"/>
	<path class="st0" d="M117.5,99.8c-0.6-1-0.1-2.4,1.4-3.6C119.2,97.6,119.1,98.9,117.5,99.8z"/>
	<path class="st0" d="M119.4,87.9c2.2,0.1,2.9,1.2,1.6,3.1C120.4,90,119.5,89.2,119.4,87.9z"/>
	<path class="st0" d="M94.3,63.5c-0.2,1.6-1.2,1.9-2.7,1.7C91.5,63.5,91.5,63.5,94.3,63.5z"/>
	<path class="st0" d="M88.1,75.4c0.8,1.8,0.3,2.6-1.8,2.6C86.5,76.9,87.2,76.1,88.1,75.4z"/>
	<path class="st0" d="M112.1,72.2c-0.5,0.6-1.2,0.8-1.8,0.3c-0.7-0.5-0.2-1.2,0-1.9C111.3,70.6,111.6,71.4,112.1,72.2z"/>
	<path class="st0" d="M121.9,99c0.6,2,0.4,2.3-1.6,2.5C120.8,100.7,121.3,99.9,121.9,99z"/>
	<path class="st0" d="M118.9,113.6c0.3,0.3,0.5,0.6,0.3,1c-0.1,0.3,0.1,0.9-0.6,0.9c-0.7,0-0.7-0.4-0.6-0.9c0-0.2,0.1-0.5,0.3-0.8
		C118.6,113.6,118.7,113.6,118.9,113.6z"/>
	<path class="st0" d="M149.6,112.9c-0.8-1.4-0.3-2.7,1.4-3.1C151.1,111,150.2,111.8,149.6,112.9z"/>
	<path class="st0" d="M80.4,94.3c-0.1-1,0.2-1.7,1.6-1.6C82.2,94,81.4,94.2,80.4,94.3z"/>
	<path class="st2" d="M97,98.6c0,0.1-0.1,0.1-0.2,0.1C96.9,98.7,96.9,98.6,97,98.6C97,98.5,97,98.6,97,98.6z"/>
	<path class="st0" d="M97.1,72.5c0.4-0.4,0.4-1.1,1.1-1.1c0.5,0.1,0.5,0.5,0.5,0.8c-0.1,0.7-0.3,1.6-0.9,1.7
		C96.8,74.1,96.8,73.3,97.1,72.5z"/>
	<path class="st3" d="M144.2,109.3c-0.4,0.5-0.8,0.8-1.4,0.5c-0.3-0.2-0.3-0.5-0.1-0.8c0.3-0.6,0.7-1.6,1.3-1.5
		C145.1,107.7,144.3,108.6,144.2,109.3z"/>
	<path class="st3" d="M61.6,99.7c0.1-0.3,0.2-0.5,0.4-0.6c0.3-0.4,0.6-1,1.2-0.8c0.4,0.1,0.5,0.7,0.4,1.1c-0.1,0.5-0.2,1.2-0.9,1.3
		C62.2,100.7,61.5,100.6,61.6,99.7z"/>
	<path class="st3" d="M67.9,90.6c-0.3,0.6-0.7,1-1.3,0.6c-0.4-0.3-0.2-0.8,0.2-1C67.3,90,68,89.3,67.9,90.6z"/>
</g>
<text transform="matrix(1 0 0 1 960 540)" style="font-family:'MyriadPro-Regular'; font-size:12px;"> 10px 10px 5px 0px rgba(0,0,0,0.75);</text>
</svg>
