<?xml version="1.0" encoding="utf-8"?>
<!-- Generator: Adobe Illustrator 26.0.1, SVG Export Plug-In . SVG Version: 6.00 Build 0)  -->
<svg version="1.1" id="Layer_1" xmlns="http://www.w3.org/2000/svg" xmlns:xlink="http://www.w3.org/1999/xlink" x="0px" y="0px"
	 viewBox="0 0 1920 1080" style="enable-background:new 0 0 1920 1080;" xml:space="preserve">
<style type="text/css">
	.st0{fill:#754C24;}
	.st1{fill:#603813;}
	.st2{clip-path:url(#SVGID_00000040547669522455389120000000820094917718550198_);fill:#603813;}
	.st3{clip-path:url(#SVGID_00000066494840616216611440000010880027603529085366_);fill:#603813;}
	.st4{clip-path:url(#SVGID_00000181075286808644074120000011285313219373894297_);fill:#603813;}
	.st5{clip-path:url(#SVGID_00000074404073318188360860000014704714149984038329_);fill:#A67C52;}
	.st6{clip-path:url(#SVGID_00000183216970778437118520000015926111493657207433_);fill:#C69C6D;}
	.st7{clip-path:url(#SVGID_00000024711555415830848150000004571316099099542960_);fill:#A67C52;}
	.st8{clip-path:url(#SVGID_00000106141660184358012650000013402970161883630476_);fill:#754C24;}
	.st9{fill:none;stroke:#754C24;stroke-width:4.9089;stroke-miterlimit:10;}
	.st10{fill:#333333;}
	.st11{fill:#FFFFFF;}
</style>
<g id="Legs">
	<path class="st0" d="M723,888.6L723,888.6c-4.8-1-7.9-5.6-7.1-10.4l25.9-191.8l41.1,8.8L733.7,882
		C732.5,886.7,727.7,889.6,723,888.6z"/>
	<polygon class="st1" points="735.6,732.7 772.5,735.4 782.9,695.2 741.8,686.4 	"/>
	<g>
		<defs>
			<path id="SVGID_1_" d="M1251,882H579V749h672V882z M1251,304H579v445h672V304z M1016,628c-1.9,9.8-9.7,17.4-19.6,19.1
				c-21.3,3.6-63.6,7.4-120.9,7.4c-57.2,0-99.3-3.7-120.7-7.3c-9.9-1.7-17.7-9.3-19.6-19.1c-3.5-18.4-8.3-52.6-8.3-103.3
				c0-51,4.8-85.3,8.4-103.6c1.9-9.8,9.6-17.4,19.4-19.1c20.3-3.6,60.4-7.1,120.9-7.1c60.6,0,100.8,3.5,121,7.1
				c9.7,1.7,17.5,9.2,19.4,18.9c3.5,17.8,8.3,51.4,8.3,103.7C1024.2,576.5,1019.5,610,1016,628z"/>
		</defs>
		<clipPath id="SVGID_00000025404644614967044180000003425361860010977204_">
			<use xlink:href="#SVGID_1_"  style="overflow:visible;"/>
		</clipPath>
		<path style="clip-path:url(#SVGID_00000025404644614967044180000003425361860010977204_);fill:#603813;" d="M788,816.2L788,816.2
			c-4.8-1-7.9-5.6-7.1-10.4L806.8,614l41.1,8.8l-49.2,186.8C797.5,814.3,792.7,817.2,788,816.2z"/>
	</g>
	<path class="st0" d="M1134.7,888.6L1134.7,888.6c4.8-1,7.9-5.6,7.1-10.4l-25.9-191.8l-41.1,8.8L1124,882
		C1125.2,886.7,1129.9,889.6,1134.7,888.6z"/>
	<polygon class="st1" points="1122.1,732.7 1085.2,735.4 1074.7,695.2 1115.8,686.4 	"/>
	<g>
		<defs>
			<path id="SVGID_00000066507729141817714290000017050757573959324600_" d="M1251,882H579V749h672V882z M1251,304H579v445h672V304z
				 M1016,628c-1.9,9.8-9.7,17.4-19.6,19.1c-21.3,3.6-63.6,7.4-120.9,7.4c-57.2,0-99.3-3.7-120.7-7.3c-9.9-1.7-17.7-9.3-19.6-19.1
				c-3.5-18.4-8.3-52.6-8.3-103.3c0-51,4.8-85.3,8.4-103.6c1.9-9.8,9.6-17.4,19.4-19.1c20.3-3.6,60.4-7.1,120.9-7.1
				c60.6,0,100.8,3.5,121,7.1c9.7,1.7,17.5,9.2,19.4,18.9c3.5,17.8,8.3,51.4,8.3,103.7C1024.2,576.5,1019.5,610,1016,628z"/>
		</defs>
		<clipPath id="SVGID_00000031208745874506388600000008673112660406760112_">
			<use xlink:href="#SVGID_00000066507729141817714290000017050757573959324600_"  style="overflow:visible;"/>
		</clipPath>
		<path style="clip-path:url(#SVGID_00000031208745874506388600000008673112660406760112_);fill:#603813;" d="M1069.7,816.2
			L1069.7,816.2c4.8-1,7.9-5.6,7.1-10.4L1050.9,614l-41.1,8.8l49.2,186.8C1060.2,814.3,1064.9,817.2,1069.7,816.2z"/>
	</g>
	<g>
		<defs>
			<path id="SVGID_00000016033635108355372850000013376645651547856037_" d="M1251,749H579V304h672V749z M1024.3,524.7
				c0-52.3-4.8-85.9-8.3-103.7c-1.9-9.7-9.7-17.2-19.4-18.9c-20.2-3.6-60.4-7.1-121-7.1c-60.5,0-100.6,3.5-120.9,7.1
				c-9.8,1.7-17.5,9.3-19.4,19.1c-3.6,18.3-8.4,52.6-8.4,103.6c0,50.7,4.8,84.9,8.3,103.3c1.9,9.8,9.7,17.4,19.6,19.1
				c21.4,3.6,63.5,7.3,120.7,7.3c57.3,0,99.6-3.8,120.9-7.4c9.9-1.7,17.7-9.3,19.6-19.1C1019.5,610,1024.2,576.5,1024.3,524.7z"/>
		</defs>
		<clipPath id="SVGID_00000122697732237703142230000002489456585400440735_">
			<use xlink:href="#SVGID_00000016033635108355372850000013376645651547856037_"  style="overflow:visible;"/>
		</clipPath>
		<path style="clip-path:url(#SVGID_00000122697732237703142230000002489456585400440735_);fill:#603813;" d="M1164,701.1
			c-1.2,7-6.8,12.4-13.9,13.3c-25.5,3.2-94.2,9.9-219.5,9.9c-125.1,0-193.8-6.7-219.4-9.9c-7.1-0.9-12.8-6.3-13.9-13.4
			c-3.4-20.5-9.4-68.2-9.4-145.7c0-77.6,6-125.3,9.4-145.7c1.2-7,6.8-12.5,13.9-13.4c24.9-3.2,91.3-9.9,214.8-9.9
			c125.6,0,197.6,6.9,224.1,10c7.1,0.8,12.8,6.3,14,13.3c3.4,20,9.3,66.3,9.3,145.6C1173.3,634.9,1167.4,681.2,1164,701.1z"/>
	</g>
</g>
<g id="TV">
	<g>
		<defs>
			<path id="SVGID_00000030450370125230668480000016590037435070269071_" d="M1251,749H579V304h672V749z M1024.3,524.7
				c0-52.3-4.8-85.9-8.3-103.7c-1.9-9.7-9.7-17.2-19.4-18.9c-20.2-3.6-60.4-7.1-121-7.1c-60.5,0-100.6,3.5-120.9,7.1
				c-9.8,1.7-17.5,9.3-19.4,19.1c-3.6,18.3-8.4,52.6-8.4,103.6c0,50.7,4.8,84.9,8.3,103.3c1.9,9.8,9.7,17.4,19.6,19.1
				c21.4,3.6,63.5,7.3,120.7,7.3c57.3,0,99.6-3.8,120.9-7.4c9.9-1.7,17.7-9.3,19.6-19.1C1019.5,610,1024.2,576.5,1024.3,524.7z"/>
		</defs>
		<clipPath id="SVGID_00000101814957266831669790000011060001170152273536_">
			<use xlink:href="#SVGID_00000030450370125230668480000016590037435070269071_"  style="overflow:visible;"/>
		</clipPath>
		<path style="clip-path:url(#SVGID_00000101814957266831669790000011060001170152273536_);fill:#A67C52;" d="M1178.5,649.4
			c-1.3,7.5-7.3,13.2-14.8,14.1c-27,3.4-100,10.5-233.1,10.5c-132.9,0-205.8-7.1-233-10.5c-7.5-0.9-13.5-6.7-14.8-14.2
			c-3.6-21.8-10-72.4-10-154.7c0-58.3,7.5-100.8,10.7-128.3c1.3-11.3,26.6-39.2,38.6-40.7c26.5-3.3,72.4-10.5,203.5-10.5
			c133.4,0,185.3,7.3,213.4,10.6c14.3,1.7,38.1,29.2,39.4,40.5c3.1,27,9.9,68.9,9.9,128.3C1188.3,579.1,1182.1,628.3,1178.5,649.4z"
			/>
	</g>
	<g>
		<defs>
			<path id="SVGID_00000071528870690108614020000001172665220154552467_" d="M1251,749H579V304h672V749z M1024.3,524.7
				c0-52.3-4.8-85.9-8.3-103.7c-1.9-9.7-9.7-17.2-19.4-18.9c-20.2-3.6-60.4-7.1-121-7.1c-60.5,0-100.6,3.5-120.9,7.1
				c-9.8,1.7-17.5,9.3-19.4,19.1c-3.6,18.3-8.4,52.6-8.4,103.6c0,50.7,4.8,84.9,8.3,103.3c1.9,9.8,9.7,17.4,19.6,19.1
				c21.4,3.6,63.5,7.3,120.7,7.3c57.3,0,99.6-3.8,120.9-7.4c9.9-1.7,17.7-9.3,19.6-19.1C1019.5,610,1024.2,576.5,1024.3,524.7z"/>
		</defs>
		<clipPath id="SVGID_00000064323755637640431840000017216457480036774800_">
			<use xlink:href="#SVGID_00000071528870690108614020000001172665220154552467_"  style="overflow:visible;"/>
		</clipPath>
		<path style="clip-path:url(#SVGID_00000064323755637640431840000017216457480036774800_);fill:#C69C6D;" d="M1178.5,680.1
			c-1.3,7.5-7.3,13.2-14.8,14.1c-27,3.4-100,10.5-233.1,10.5c-132.9,0-205.8-7.1-233-10.5c-7.5-0.9-13.5-6.7-14.8-14.2
			c-3.6-21.8-10-72.4-10-154.7c0-82.4,6.4-133,10-154.8c1.2-7.5,7.2-13.2,14.7-14.2c26.5-3.4,97-10.5,228.1-10.5
			c133.4,0,209.9,7.3,237.9,10.6c7.5,0.9,13.6,6.7,14.9,14.2c3.6,21.2,9.8,70.4,9.8,154.7C1188.3,609.8,1182.1,659,1178.5,680.1z"/>
	</g>
	<g>
		<defs>
			<path id="SVGID_00000073717384879546780470000010340799715885192885_" d="M1251,749H579V304h672V749z M1024.3,524.7
				c0-52.3-4.8-85.9-8.3-103.7c-1.9-9.7-9.7-17.2-19.4-18.9c-20.2-3.6-60.4-7.1-121-7.1c-60.5,0-100.6,3.5-120.9,7.1
				c-9.8,1.7-17.5,9.3-19.4,19.1c-3.6,18.3-8.4,52.6-8.4,103.6c0,50.7,4.8,84.9,8.3,103.3c1.9,9.8,9.7,17.4,19.6,19.1
				c21.4,3.6,63.5,7.3,120.7,7.3c57.3,0,99.6-3.8,120.9-7.4c9.9-1.7,17.7-9.3,19.6-19.1C1019.5,610,1024.2,576.5,1024.3,524.7z"/>
		</defs>
		<clipPath id="SVGID_00000014623573203938280290000006781553350121743504_">
			<use xlink:href="#SVGID_00000073717384879546780470000010340799715885192885_"  style="overflow:visible;"/>
		</clipPath>
		<path style="clip-path:url(#SVGID_00000014623573203938280290000006781553350121743504_);fill:#A67C52;" d="M1150.2,662.5
			c-1.1,6.6-6.4,11.7-13.1,12.5c-24,3-88.6,9.3-206.5,9.3c-117.7,0-182.4-6.3-206.4-9.3c-6.7-0.8-12-6-13.1-12.6
			c-3.2-19.3-8.8-64.2-8.8-137c0-73,5.7-117.8,8.8-137.1c1.1-6.6,6.4-11.7,13-12.6c23.4-3,85.9-9.3,202.1-9.3
			c118.1,0,185.9,6.5,210.8,9.4c6.7,0.8,12,5.9,13.2,12.5c3.2,18.8,8.7,62.3,8.7,137C1158.9,600.2,1153.4,643.7,1150.2,662.5z"/>
	</g>
	<g>
		<defs>
			<path id="SVGID_00000139271520884839444510000008929033886236670907_" d="M1251,749H579V304h672V749z M1024.3,524.7
				c0-52.3-4.8-85.9-8.3-103.7c-1.9-9.7-9.7-17.2-19.4-18.9c-20.2-3.6-60.4-7.1-121-7.1c-60.5,0-100.6,3.5-120.9,7.1
				c-9.8,1.7-17.5,9.3-19.4,19.1c-3.6,18.3-8.4,52.6-8.4,103.6c0,50.7,4.8,84.9,8.3,103.3c1.9,9.8,9.7,17.4,19.6,19.1
				c21.4,3.6,63.5,7.3,120.7,7.3c57.3,0,99.6-3.8,120.9-7.4c9.9-1.7,17.7-9.3,19.6-19.1C1019.5,610,1024.2,576.5,1024.3,524.7z"/>
		</defs>
		<clipPath id="SVGID_00000004518903174061658380000000193087169184974508_">
			<use xlink:href="#SVGID_00000139271520884839444510000008929033886236670907_"  style="overflow:visible;"/>
		</clipPath>
		<path style="clip-path:url(#SVGID_00000004518903174061658380000000193087169184974508_);fill:#754C24;" d="M1026.4,635.6
			c-2.1,10.5-10.4,18.7-21,20.5c-22.9,3.8-68.3,7.9-129.9,7.9c-61.4,0-106.7-4-129.7-7.9c-10.6-1.8-19.1-10-21.1-20.5
			c-3.8-19.7-9-56.5-9-111c0-54.8,5.2-91.6,9-111.2c2-10.5,10.3-18.6,20.9-20.5c21.8-3.8,64.9-7.6,129.8-7.6
			c65.1,0,108.2,3.8,130,7.6c10.5,1.8,18.8,9.9,20.8,20.3c3.8,19.2,8.9,55.3,8.9,111.4C1035.2,580.4,1030.2,616.4,1026.4,635.6z"/>
	</g>
	<g>
		<path class="st0" d="M1137.6,549.5c0,1.4-1.1,2.5-2.5,2.5h-73.6c-1.4,0-2.5-1.1-2.5-2.5l0,0c0-1.4,1.1-2.5,2.5-2.5h73.6
			C1136.5,547,1137.6,548.1,1137.6,549.5L1137.6,549.5z"/>
		<path class="st0" d="M1137.6,562.4c0,1.4-1.1,2.5-2.5,2.5h-73.6c-1.4,0-2.5-1.1-2.5-2.5l0,0c0-1.4,1.1-2.5,2.5-2.5h73.6
			C1136.5,559.9,1137.6,561,1137.6,562.4L1137.6,562.4z"/>
		<path class="st0" d="M1137.6,575.3c0,1.4-1.1,2.5-2.5,2.5h-73.6c-1.4,0-2.5-1.1-2.5-2.5l0,0c0-1.4,1.1-2.5,2.5-2.5h73.6
			C1136.5,572.8,1137.6,573.9,1137.6,575.3L1137.6,575.3z"/>
		<path class="st0" d="M1137.6,588.2c0,1.4-1.1,2.5-2.5,2.5h-73.6c-1.4,0-2.5-1.1-2.5-2.5l0,0c0-1.4,1.1-2.5,2.5-2.5h73.6
			C1136.5,585.7,1137.6,586.8,1137.6,588.2L1137.6,588.2z"/>
		<path class="st0" d="M1137.6,601c0,1.4-1.1,2.5-2.5,2.5h-73.6c-1.4,0-2.5-1.1-2.5-2.5l0,0c0-1.4,1.1-2.5,2.5-2.5h73.6
			C1136.5,598.6,1137.6,599.7,1137.6,601L1137.6,601z"/>
		<path class="st0" d="M1137.6,613.9c0,1.4-1.1,2.5-2.5,2.5h-73.6c-1.4,0-2.5-1.1-2.5-2.5l0,0c0-1.4,1.1-2.5,2.5-2.5h73.6
			C1136.5,611.5,1137.6,612.6,1137.6,613.9L1137.6,613.9z"/>
		<path class="st0" d="M1137.6,626.8c0,1.4-1.1,2.5-2.5,2.5h-73.6c-1.4,0-2.5-1.1-2.5-2.5l0,0c0-1.4,1.1-2.5,2.5-2.5h73.6
			C1136.5,624.4,1137.6,625.5,1137.6,626.8L1137.6,626.8z"/>
		<path class="st0" d="M1137.6,639.7c0,1.4-1.1,2.5-2.5,2.5h-73.6c-1.4,0-2.5-1.1-2.5-2.5l0,0c0-1.4,1.1-2.5,2.5-2.5h73.6
			C1136.5,637.2,1137.6,638.3,1137.6,639.7L1137.6,639.7z"/>
	</g>
</g>
<g id="Antenna">
	<polyline class="st9" points="821.1,124.3 931.5,324.2 1039.8,124.3 	"/>
	<path class="st10" d="M932.6,298.3c-14.7,0-26.7,11.9-26.7,26.7c0,0.5,0,1,0,1.5c7.6,2.7,17.2,4.3,27.6,4.3
		c9.5,0,18.3-1.3,25.6-3.6c0.1-0.7,0.1-1.5,0.1-2.2C959.3,310.2,947.3,298.3,932.6,298.3z"/>
</g>
<g id="Volume">
	<circle class="st1" cx="1096" cy="435.2" r="26.1"/>
	<circle class="st0" cx="1096" cy="429.1" r="26.1"/>
	<circle class="st1" cx="1096" cy="429.1" r="20.2"/>
	<path class="st0" d="M1100.2,446.4c0,2.4-1.9,4.3-4.3,4.3l0,0c-2.4,0-4.3-1.9-4.3-4.3v-35c0-2.4,1.9-4.3,4.3-4.3l0,0
		c2.4,0,4.3,1.9,4.3,4.3V446.4z"/>
	<circle class="st1" cx="1096" cy="504.7" r="26.1"/>
	<circle class="st0" cx="1096" cy="498.5" r="26.1"/>
	<circle class="st1" cx="1096" cy="498.6" r="20.2"/>
	<path class="st0" d="M1100.2,516.4c0,2.4-1.9,4.3-4.3,4.3l0,0c-2.4,0-4.3-1.9-4.3-4.3v-35c0-2.4,1.9-4.3,4.3-4.3l0,0
		c2.4,0,4.3,1.9,4.3,4.3V516.4z"/>
</g>
<g id="Shine">
	<path class="st11" d="M1015.9,421c-1.2-6.2-4.9-11.6-9.9-15c1.8,2.6,3.1,5.6,3.8,8.9c3.5,17.8,8.3,51.4,8.3,103.7
		c0,51.9-4.7,85.4-8.2,103.3c-1.9,9.8-9.7,17.4-19.6,19.1c-21.3,3.6-63.6,7.4-120.9,7.4c-57.2,0-99.3-3.7-120.7-7.3
		c-3.6-0.6-6.9-2-9.7-3.9c3.6,5.3,9.3,9,15.8,10.1c21.4,3.6,63.5,7.3,120.7,7.3c57.4,0,99.6-3.8,120.9-7.4
		c9.9-1.7,17.6-9.3,19.6-19.1c3.5-17.9,8.2-51.4,8.2-103.3C1024.2,472.4,1019.4,438.8,1015.9,421z"/>
</g>
</svg>
